<svg height="452pt" viewBox="0 0 452.00179 452" width="452pt" xmlns="http://www.w3.org/2000/svg"><path d="m46.988281 199.660156v207.546875h.003907v41.5h358.683593v-249.046875zm0 0" fill="#d7e057"/><path d="m405.675781 196.660156h-358.6875c-1.65625 0-3 1.34375-3 3v109.625c0 1.660156 1.34375 3 3 3 1.660157 0 3-1.339844 3-3v-106.625h352.6875l-.003906 243.046875h-352.679687l-.003907-105.832031h-6l.003907 108.832031c0 1.65625 1.34375 3 3 3h358.683593c1.65625 0 3-1.34375 3-3l.003907-249.046875c-.003907-1.65625-1.34375-3-3.003907-3zm0 0" fill="#3a312a"/><path d="m65.640625 22.355469c-1.945313 23.128906-26.046875 26.78125-26.046875 26.78125 20.691406.972656 25.847656 28.117187 25.847656 28.117187.441406-19.355468 26.644532-28.40625 26.644532-28.40625-19.625-1.171875-26.445313-26.492187-26.445313-26.492187zm0 0" fill="#d7e057"/><path d="m92.265625 45.851562c-17.210937-1.027343-23.664063-24.046874-23.726563-24.277343-.382812-1.40625-1.726562-2.328125-3.167968-2.207031-1.449219.132812-2.59375 1.285156-2.71875 2.734374-1.71875 20.429688-22.625 23.925782-23.507813 24.066407-1.523437.230469-2.625 1.578125-2.542969 3.121093.078126 1.539063 1.3125 2.769532 2.851563 2.84375 18.058594.847657 23 25.4375 23.046875 25.683594.273438 1.421875 1.519531 2.433594 2.945312 2.433594.082032 0 .167969 0 .25-.007812 1.527344-.128907 2.714844-1.386719 2.75-2.917969.390626-17.019531 24.382813-25.554688 24.625-25.640625 1.351563-.46875 2.1875-1.828125 1.988282-3.246094-.195313-1.417969-1.363282-2.5-2.792969-2.585938zm-27.132813 20.695313c-2.710937-6.261719-7.417968-13.816406-15.171874-17.753906 5.859374-2.808594 12.816406-7.824219 16.402343-16.546875 3.101563 6.144531 8.402344 13.761718 16.667969 17.445312-6.015625 3.28125-13.84375 8.8125-17.898438 16.855469zm0 0" fill="#3a312a"/><path d="m22.246094 56.316406c-1.378906 16.359375-18.425782 18.941406-18.425782 18.941406 14.636719.6875 18.285157 19.890626 18.285157 19.890626.3125-13.6875 18.84375-20.089844 18.84375-20.089844-13.882813-.832032-18.703125-18.742188-18.703125-18.742188zm0 0" fill="#d7e057"/><path d="m41.128906 72.0625c-11.53125-.691406-15.945312-16.371094-15.988281-16.53125-.378906-1.402344-1.710937-2.332031-3.164063-2.203125-1.453124.132813-2.597656 1.285156-2.71875 2.738281-1.160156 13.742188-15.292968 16.128906-15.886718 16.222656-1.523438.230469-2.625 1.582032-2.546875 3.125.082031 1.539063 1.316406 2.765626 2.855469 2.839844 12.074218.570313 15.449218 17.289063 15.476562 17.453125.273438 1.425781 1.519531 2.441407 2.945312 2.441407.085938 0 .167969-.003907.25-.011719 1.53125-.125 2.714844-1.386719 2.753907-2.921875.257812-11.417969 16.664062-17.269532 16.824219-17.324219 1.355468-.46875 2.1875-1.824219 1.992187-3.242187-.195313-1.417969-1.363281-2.5-2.792969-2.585938zm-19.171875 13.589844c-1.847656-3.773438-4.679687-7.894532-8.894531-10.5625 3.714844-2.082032 7.394531-5.257813 9.742188-9.832032 2.117187 3.746094 5.308593 7.910157 9.882812 10.445313-3.699219 2.203125-7.976562 5.484375-10.730469 9.949219zm0 0" fill="#3a312a"/><path d="m22.246094 3c-1.378906 16.359375-18.425782 18.941406-18.425782 18.941406 14.636719.691406 18.285157 19.890625 18.285157 19.890625.3125-13.691406 18.84375-20.089843 18.84375-20.089843-13.882813-.832032-18.703125-18.742188-18.703125-18.742188zm0 0" fill="#d7e057"/><path d="m41.128906 18.746094c-11.53125-.6875-15.945312-16.371094-15.988281-16.527344-.378906-1.40625-1.707031-2.335938-3.164063-2.2070312-1.449218.1328122-2.597656 1.2851562-2.71875 2.7382812-1.15625 13.742188-15.292968 16.132812-15.882812 16.226562-1.527344.230469-2.628906 1.582032-2.546875 3.121094.078125 1.542969 1.3125 2.769532 2.855469 2.84375 12.070312.566406 15.445312 17.289063 15.476562 17.453125.273438 1.425781 1.519532 2.4375 2.945313 2.4375.085937 0 .167969 0 .25-.007812 1.53125-.128907 2.714843-1.390625 2.753906-2.921875.257813-11.417969 16.664063-17.269532 16.824219-17.324219 1.351562-.46875 2.1875-1.828125 1.992187-3.246094-.199219-1.417969-1.367187-2.5-2.796875-2.585937zm-19.171875 13.589844c-1.847656-3.769532-4.679687-7.894532-8.894531-10.5625 3.714844-2.082032 7.394531-5.257813 9.742188-9.832032 2.117187 3.75 5.3125 7.910156 9.882812 10.449219-3.699219 2.203125-7.976562 5.480469-10.730469 9.945313zm0 0" fill="#3a312a"/><path d="m446.277344 186.300781-213.519532-180.878906c-3.558593-3.015625-9.289062-3.015625-12.847656 0l-92.957031 78.746094-22.621094 19.164062-9.957031 8.4375-87.984375 74.535157c-5.792969 4.90625-1.734375 13.359374 6.421875 13.359374h427.039062c8.15625-.003906 12.21875-8.453124 6.425782-13.363281zm0 0" fill="#87796f"/><path d="m448.214844 184.011719-213.519532-180.878907c-4.6875-3.96875-12.035156-3.96875-16.726562 0l-92.953125 78.746094c-1.265625 1.070313-1.421875 2.964844-.351563 4.226563 1.070313 1.261719 2.960938 1.421875 4.226563.351562l92.957031-78.746093c2.429688-2.058594 6.535156-2.058594 8.964844 0l213.523438 180.878906c2.046874 1.734375 1.765624 3.589844 1.417968 4.542968-.597656 1.625-2.5 3.527344-5.902344 3.527344h-427.039062c-3.402344 0-5.304688-1.902344-5.902344-3.527344-.347656-.953124-.625-2.808593 1.417969-4.542968l97.945313-82.96875c1.261718-1.070313 1.421874-2.964844.347656-4.226563-1.070313-1.265625-2.960938-1.421875-4.226563-.351562l-97.941406 82.96875c-3.425781 2.898437-4.640625 7.1875-3.171875 11.1875 1.660156 4.53125 6.1875 7.460937 11.535156 7.460937h427.039063c5.347656 0 9.875-2.929687 11.535156-7.460937 1.464844-4 .25-8.285157-3.175781-11.1875zm0 0" fill="#3a312a"/><path d="m263.753906 257.269531h-74.839844c-11 0-19.921874 8.898438-19.921874 19.898438v171.542969h114.683593v-171.542969c0-11-8.921875-19.898438-19.921875-19.898438zm0 0" fill="#f16c7a"/><path d="m263.753906 254.265625h-74.84375c-12.636718 0-22.917968 10.273437-22.917968 22.902344v171.539062c0 1.65625 1.34375 3 3 3h114.679687c1.65625 0 3-1.34375 3-3v-171.539062c.003906-12.628907-10.28125-22.902344-22.917969-22.902344zm16.921875 191.441406h-108.683593v-168.539062c0-9.320313 7.59375-16.902344 16.921874-16.902344h74.839844c9.332032 0 16.921875 7.582031 16.921875 16.902344zm0 0" fill="#3a312a"/><path d="m449 445.828125h-446c-1.65625 0-3 1.34375-3 3 0 1.660156 1.34375 3 3 3h446c1.65625 0 3-1.339844 3-3 0-1.65625-1.34375-3-3-3zm0 0" fill="#3a312a"/><path d="m269.335938 353.660156c0 5.246094-4.253907 9.5-9.5 9.5-5.25 0-9.5-4.253906-9.5-9.5s4.25-9.5 9.5-9.5c5.246093 0 9.5 4.253906 9.5 9.5zm0 0" fill="#87796f"/><path d="m259.835938 341.160156c-6.894532 0-12.5 5.609375-12.5 12.5 0 6.894532 5.605468 12.5 12.5 12.5 6.890624 0 12.5-5.605468 12.5-12.5 0-6.890625-5.609376-12.5-12.5-12.5zm0 19c-3.585938 0-6.5-2.914062-6.5-6.5 0-3.582031 2.914062-6.5 6.5-6.5 3.582031 0 6.5 2.917969 6.5 6.5 0 3.585938-2.921876 6.5-6.5 6.5zm0 0" fill="#3a312a"/><path d="m279 115.160156c0 29.085938-23.578125 52.667969-52.664062 52.667969-29.089844 0-52.667969-23.582031-52.667969-52.667969 0-29.085937 23.578125-52.664062 52.667969-52.664062 29.085937 0 52.664062 23.578125 52.664062 52.664062zm0 0" fill="#fce8cb"/><path d="m226.335938 59.496094c-30.695313 0-55.667969 24.972656-55.667969 55.664062 0 30.695313 24.972656 55.667969 55.667969 55.667969 30.695312 0 55.664062-24.972656 55.664062-55.667969 0-30.691406-24.972656-55.664062-55.664062-55.664062zm0 105.332031c-27.386719 0-49.667969-22.277344-49.667969-49.664063 0-27.386718 22.28125-49.667968 49.667969-49.667968 27.382812 0 49.664062 22.277344 49.664062 49.664062 0 27.386719-22.28125 49.667969-49.664062 49.667969zm0 0" fill="#3a312a"/><path d="m444.335938 188.585938-213.523438-180.878907c-2.417969-2.058593-6.539062-2.058593-8.957031 0l-12.703125 10.738281 200.839844 170.140626c2.0625 1.742187 1.78125 3.601562 1.421874 4.542968-.578124 1.617188-2.441406 3.476563-5.738281 3.539063h34.179688c3.398437 0 5.296875-1.902344 5.898437-3.539063.359375-.941406.640625-2.800781-1.417968-4.542968zm0 0" fill="#6b5b51"/><path d="m226.335938 65.488281c-2.921876 0-5.800782.257813-8.582032.757813 23.300782 4.0625 41.058594 24.460937 41.058594 48.921875 0 24.4375-17.757812 44.839843-41.058594 48.898437 2.78125.5 5.660156.761719 8.582032.761719 27.378906 0 49.65625-22.28125 49.65625-49.660156 0-27.398438-22.277344-49.679688-49.65625-49.679688zm0 0" fill="#ccae8b"/><path d="m376.019531 202.65625-.019531 243.058594h26.679688v-243.058594zm0 0" fill="#b9bc39"/></svg>