<?xml version="1.0" encoding="utf-8"?>
<!-- Generator: Adobe Illustrator 16.0.0, SVG Export Plug-In . SVG Version: 6.00 Build 0)  -->
<!DOCTYPE svg PUBLIC "-//W3C//DTD SVG 1.1//EN" "http://www.w3.org/Graphics/SVG/1.1/DTD/svg11.dtd">
<svg version="1.1" id="Layer_1" xmlns="http://www.w3.org/2000/svg" xmlns:xlink="http://www.w3.org/1999/xlink" x="0px" y="0px"
	 width="142.333px" height="54.898px" viewBox="0 0 142.333 54.898" enable-background="new 0 0 142.333 54.898"
	 xml:space="preserve">
<line fill="none" x1="1.499" y1="44.149" x2="39.926" y2="43.594"/>
<path fill="#3A53A4" d="M16.246,13.557c0.922,0.815-1.524,5.282-1.985,6.522c-0.212,0.639-0.709,2.091-1.241,2.304
	c-0.319-0.567,0.745-1.63,0.532-2.196c-0.213-0.391-0.354-0.107-0.532-0.355c-0.248-0.354,0.142-0.425-0.248-0.604
	c-0.426-0.212-0.851,0.143-0.709-0.779c0,0,0,0-0.035-0.035c-0.958-0.213-1.135,0.531-2.375-0.639l-0.496-0.638l0.78,0.142
	c-0.142-0.07-0.496-0.248-0.674-0.318c0.213-0.107,0.461-0.107,0.745-0.107c-0.071-0.07,0.071-0.105-0.212-0.105
	c-0.568-0.178-1.241-0.106-1.808,0.035c-0.497,0.107-1.063,0.461-1.347,0.496l-1.063,0.922C3.449,20.08,4.3,20.859,4.086,22.56
	c-0.283,0.143-0.567,0.213-0.885,0.107l-0.107-0.035c-0.035,0-0.035,0-0.071,0.035l0,0c0.284,0.354,0.532,0.354,1.063,0.39
	c-0.177,0.178-0.212,0.354-0.177,0.709c0.106-0.07,0.106-0.07,0.213-0.142l0.071-0.035c0.106-0.106-0.035-0.035,0.142-0.106
	c0.354,0.567,0.213,0.46,0.745,0.78c0.284,0.177,0.745,0.426,0.886,0.672c0.497,0.072,0.354,0.497,1.382,0.64
	c0.106,0,0.212,0,0.319,0.035l0.249,0.07c0.567-0.212,1.063,0.249,1.702-0.142c0.496-0.318,0.745-0.673,1.134-0.957l0.851,0.142
	c-0.212,0.566-1.028,1.523-1.347,1.985c-0.532,0.851-0.567,1.418-0.957,2.34c-0.921,1.56-0.815,1.276-2.162,1.666
	c-0.319,0.07-0.177,0.389,0.035,0.354c0.319-0.106,0.709-0.142,1.063-0.142c0.071-0.035,0.212,0.07,0.071,0.142
	c-0.354,0.178-0.78,0.391-1.063,0.603c-0.213,0.178,0.07,0.425,0.248,0.283c0.249-0.212,0.709-0.425,1.063-0.603
	C8.66,31.318,8.73,31.387,8.66,31.53c-0.213,0.39-0.425,0.779-0.744,1.17c-0.142,0.212,0.142,0.461,0.354,0.177
	c0.283-0.354,0.496-0.709,0.709-1.063c0.106-0.177,0.212-0.07,0.177,0.071c-0.035,0.354-0.071,0.744-0.177,1.1
	c-0.071,0.247,0.283,0.39,0.39,0.069c0.106-0.389,0.177-0.744,0.213-1.063c0.035-0.106,0.212-0.567,0.46-0.319
	c0.142,0.178,0.425,0.603,0.567,0.567c0.284-0.179-0.142-1.063-0.248-1.312c-0.355-0.815,0.425-2.057,0.957-2.659l0.177-0.177
	l0.39,0.425c0.283-0.213,0.213-0.354,0.638-0.461c0.745,0.284,1.063,1.454,0.957,2.447c-0.212,1.452-1.312,3.012-1.418,3.757
	c0,0.035,0.283,0,0.283,0.071c-0.071,0.566-0.071,1.17-0.035,1.701c0.035,0.497,0.425,2.375,0.603,2.729l0.851,0.213
	c0.106,0.495,0.071,1.347,0.035,1.914c0,0.284-0.035,0.815-0.142,1.063c-0.284,0.496-0.851,0.566-0.249,1.524
	c1.879,2.057,4.254,1.146,4.325,0.649c0.106-0.496-1.915,0.449-2.056-1.217c-0.036-0.461-0.036-1.382,0.142-1.701
	c-0.071-0.461,0.071-1.382,0.142-1.879l1.276-0.283c0.035-0.461,0.39-1.631,0.567-2.163c0.071-0.354,0.177-0.745,0.284-1.1
	l0.283-0.957c0-0.034,0.036-0.034,0.036-0.07c0-0.035,0.212,0.036,0.212-0.035c-0.071-0.852,0.532-4.041,0.071-6.239
	c-0.283-1.205-1.454-2.835-2.233-3.828c-0.142-0.177-0.886-0.639,0.142-1.312c-0.142-0.284-0.425-0.532-0.638-0.674
	c0.036-0.604,0.426-2.127,0.603-2.801l1.17-5.565c0.532-1.63,1.347-0.886,1.312-1.56c-0.497-0.178-0.638-0.036-0.957,0
	c-0.78,0.105,0.036-0.887,0.177-1.523c0.071-0.32-0.284-0.426-0.39-0.178c-0.851,2.375-0.673,0.957-0.673-0.283
	c0-0.355-0.426-0.284-0.39,0c0.106,1.381-0.142,2.374-0.815,0.424c-0.071-0.213-0.426-0.141-0.355,0.143
	c0.071,0.426,0.993,2.197-0.496,0.603c-0.142-0.142-0.461,0.106-0.248,0.284C15.147,12.458,16.033,13.203,16.246,13.557z
	 M24.895,15.117c0,0.035,0,0.107,0,0.143s0,0.07,0,0.141l0,0c0.213,1.561,1.773,4.432,2.092,5.389
	c0.249,0.639,0.709,2.057,1.206,2.233c0.354-0.531-0.709-1.595-0.461-2.128c0.142-0.389,0.319-0.105,0.496-0.354
	c0.213-0.318-0.177-0.391,0.213-0.567c0.319-0.177,0.638,0,0.708-0.284c0.106-0.318-0.142-0.496,0.177-0.531
	c0.815-0.105,1.028,0.462,2.162-0.603l0.461-0.638c-0.284-0.143-0.319-0.213-1.099-0.178c0.532-0.39,1.666-0.283,2.269-0.142
	c0.496,0.106,1.028,0.426,1.312,0.496l1.028,0.886c1.347,1.207,1.454,1.914,1.454,2.766c-0.035,0.283-0.035,0.567-0.071,0.814
	c0.106,0,0.212,0.037,0.318,0.037c0,0.07,0,0.142,0,0.212c1.206,0.603,1.525,2.305,0.887,3.438c-0.39,0.64-2.126,2.27-2.091,3.015
	c-0.284,0.106-0.106,0.282-0.426,0.354c-0.78-0.956-0.708-1.949-0.071-2.941c0.461-0.709,1.701-1.205,1.809-1.95
	c-0.107-0.814-0.497-1.027-1.064-0.851c-1.701,1.773-3.828,2.517-5.777,1.276l-0.815,0.178c0.177,0.53,0.957,1.453,1.276,1.914
	c0.603,0.886,0.638,1.808,1.206,2.658l0,0c0.46,0.886,0.354,0.78,1.488,0.957c0.284,0.036,0.178,0.354-0.035,0.283
	c-0.284-0.07-0.497-0.07-0.816-0.105c-0.071,0-0.248,0.105-0.106,0.177c0.319,0.142,0.745,0.354,0.993,0.567
	c0.213,0.142,0,0.39-0.177,0.248c-0.249-0.213-0.674-0.39-1.028-0.566c-0.106-0.036-0.177,0.07-0.142,0.212
	c0.213,0.354,0.426,0.709,0.709,1.063c0.177,0.177-0.071,0.426-0.284,0.177c-0.284-0.354-0.496-0.673-0.674-1.027
	c-0.106-0.142-0.248-0.035-0.212,0.07c0.035,0.354,0.106,0.71,0.212,1.064c0.071,0.212-0.284,0.318-0.354,0.034
	c-0.106-0.354-0.177-0.673-0.212-0.993c0-0.105-0.213-0.53-0.426-0.282c-0.142,0.142-0.389,0.566-0.532,0.531
	c-0.248-0.177,0.106-0.603,0.249-1.206c0.319-0.708-0.425-1.807-0.886-2.374l0,0l-0.177,0.391c-0.284-0.214-0.568-0.461-0.993-0.567
	c-0.709,0.283-1.028,1.417-0.887,2.375c0.071,0.496,0.036,4.36,3.616,7.657c0.567,0.425-0.886,0.602-3.935,0.566
	c-0.07,0.497-0.07,1.312-0.035,1.844c0.035,0.283,0.071,0.815,0.177,1.028c0.248,0.495,0.78,0.566,0.213,1.487
	c-1.808,2.022-4.147,1.112-4.219,0.615c-0.071-0.46,1.843,0.449,1.985-1.146c0.071-0.425,0.071-1.348-0.106-1.666
	c0.071-0.461-0.071-1.348-0.142-1.845c-2.517,0.179-4.785,0.214-6.026-0.495c0.177-0.107,1.772-3.084,2.729-6.026
	c1.206-3.793-0.035-4.042,2.801-7.728c0.142-0.178,0.957-1.17-0.284-2.057c0.142-0.283,0.461-0.391,0.674-0.531
	c0-0.604-0.319-1.383-0.461-2.056c-0.354-1.524-0.709-4.29-1.206-5.602c-0.389-1.028-0.886-1.028-1.099-1.205
	c-0.178-0.142-0.213-0.213,0.035-0.284c0.355-0.07,0.496,0.071,0.745,0.106c0.78,0.106,0-0.887-0.142-1.488
	c-0.071-0.354,0.249-0.391,0.319-0.142c0.851,2.303,0.815,0.885,0.851-0.355c0-0.354,0.319-0.283,0.319,0
	c-0.107,1.348,0.035,2.34,0.708,0.426c0.071-0.178,0.32-0.143,0.284,0.142c-0.106,0.39-0.886,2.163,0.531,0.603
	c0.143-0.142,0.39,0.07,0.178,0.248c-0.248,0.213-1.028,0.993-1.241,1.313C24.931,14.514,24.86,14.762,24.895,15.117L24.895,15.117z
	"/>
<path fill="#F47A20" d="M17.735,5.582l-0.567,2.445l1.949-1.383c0.709,0.567,1.134,0.887,1.879,1.348l-0.39-2.269l1.772-1.524
	l-2.41-0.106l-0.745-2.269l-0.957,2.269l-2.233,0.071L17.735,5.582z"/>
<path fill="#EE317E" d="M10.609,11.43l0.639,0.532l0.142,0.957c0.39-0.107,0.39-0.391,0.673-0.532
	c0.212-0.142,0.709,0.071,1.028,0.106c-0.071-0.178-0.39-0.744-0.355-0.887l0.142-0.389c0,0,0.035,0,0.035-0.037
	c0.106-0.176,0.142-0.248,0.249-0.424c-0.461,0-0.887,0.176-0.993,0c-0.248-0.143-0.425-0.391-0.673-0.604l-0.212,0.957
	L10.609,11.43z"/>
<path fill="#A72A90" d="M22.307,12.068l0.143-0.035c-0.036-0.283-0.284-0.567-0.284-0.779c-0.036-0.213,0.248-0.532,0.354-0.852
	l-0.851,0.106c-0.213-0.177-0.425-0.461-0.638-0.603l-0.178,0.815l-0.779,0.39c0.142,0.107,0.567,0.354,0.638,0.426
	c0.177,0.142,0.106,0.106,0.141,0.39c0.036,0.248,0,0.284,0.107,0.497c0.46-0.285,0.354-0.639,1.028-0.497l0.142,0.036
	C22.307,12.033,22.237,11.998,22.307,12.068z"/>
<path fill="#72BF44" d="M24.505,6.218c-0.036,0.036,0.036-0.035-0.036,0.036c-0.035,0.036-0.035,0.036-0.07,0.036
	c-0.071,0.07-0.071,0.035-0.106,0.105c0.071,0.071,0.142,0.071,0.212,0.143c0.107,0,0.107,0,0.177,0.07h0.106
	c0.036,0.248,0.036,0.461,0.177,0.531c0.035-0.105,0.248-0.354,0.319-0.389l0.532,0.035c-0.071-0.213-0.39-0.461-0.142-0.709
	l0.071-0.283L25.214,5.9l-0.425-0.354l-0.036,0.531L24.505,6.218z"/>
<path fill="#ED2224" d="M26.455,9.587l0.745,0.602l0.142,1.029c0.39-0.143,0.425-0.426,0.744-0.604
	c0.248-0.142,0.78,0.106,1.1,0.143c-0.071-0.213-0.39-0.852-0.39-0.993l0.177-0.39c0.035-0.035,0.035-0.035,0.035-0.035
	c0.142-0.214,0.178-0.284,0.248-0.461c-0.496-0.035-0.922,0.177-1.063-0.035c-0.248-0.143-0.461-0.426-0.709-0.675l-0.248,1.063
	L26.455,9.587z"/>
<path fill="#29ADE3" d="M12.169,6.751l-0.354,1.523l1.205-0.851c0.461,0.354,0.745,0.567,1.206,0.851l-0.249-1.418L15.076,5.9
	l-1.489-0.07l-0.496-1.418L12.488,5.83l-1.382,0.035L12.169,6.751z"/>
<g id="Layer_x0020_1_3_">
	<g>
		<defs>
			<polyline id="SVGID_1_" points="128.359,0 128.359,36.833 52.453,36.833 52.453,0 			"/>
		</defs>
		<clipPath id="SVGID_2_">
			<use xlink:href="#SVGID_1_"  overflow="visible"/>
		</clipPath>
	</g>
	<path fill="#FFFFFF" d="M83.194,26.469c0-0.279,0.07-0.561,0.07-0.841c0.07-1.681,0.141-3.642,0.561-5.321
		c0.42-2.241,1.12-4.552,2.171-6.582c0.63-1.261,1.4-2.521,2.521-3.432c0.98-0.84,2.171-1.33,3.502-1.33c0.979,0,1.96,0.35,2.8,0.77
		c0.98,0.561,1.961,1.262,2.871,1.962c0.63,0.419,1.051,0.979,1.4,1.61c0.07-0.49,0.141-1.051,0.28-1.541
		c0.07-0.561,0.279-1.19,0.7-1.611c0.49-0.488,1.121-0.699,1.82-0.699c1.05,0,2.381,0.141,3.292,0.84
		c1.051,0.84,1.189,2.312,1.189,3.571v0.699c0,0.562,0,1.121,0,1.681c0,0.912-0.139,1.821-0.139,2.662c0,0.351,0,0.701,0,1.05
		c0,0.841,0,1.681,0,2.521c0,0.07,0,0.141,0,0.281c0.209-0.07,0.419-0.07,0.63-0.07c0.77,0,1.61,0.279,2.31,0.56
		c0.771,0.28,1.61,0.7,2.172,1.261c0.42,0.35,0.7,0.77,0.979,1.19c0,0,0-0.07,0-0.141c0-0.489,0-1.05,0.141-1.61l0,0
		c0.21-0.7,0.631-1.189,1.12-1.54c-1.751-1.401-1.82-5.251-0.42-6.933c0.77-0.84,1.75-1.26,2.871-1.26c0.98,0,1.82,0.42,2.45,1.049
		c0.63,0.562,1.191,1.191,1.191,2.031c0,0.07,0,0.141,0.07,0.211c0,0.07,0,0.07,0.068,0.139c0-0.418,0-0.77,0-1.189
		s0.07-0.841,0.07-1.33c0-0.771,0-1.682,0.211-2.451c0.28-1.12,0.98-2.03,2.171-2.03c1.119,0,2.24,0.14,3.221,0.63
		c1.12,0.561,2.03,1.471,2.03,2.731c0,2.03-0.141,4.131-0.279,6.092c-0.141,1.47-0.211,3.011-0.211,4.481v1.541
		c0,0.489-0.069,0.98-0.069,1.47c0.351-0.84,0.77-1.681,1.19-2.45c1.189-1.751,2.59-3.012,4.761-2.451c0-0.07,0-0.141,0-0.211
		c0.07-0.701,0-1.471,0.07-2.17c0.07-0.561,0.07-1.19,0.07-1.75c0-0.631,0-1.33-0.07-1.962c-0.07-0.489-0.141-1.05-0.141-1.61
		c0-0.631,0.141-1.26,0.42-1.82c0.491-0.77,1.191-1.26,2.102-1.26c0.42,0,0.98,0.209,1.4,0.279c0.631,0.211,1.19,0.351,1.82,0.561
		l0,0h0.07c0.63,0.281,1.12,0.77,1.4,1.4c0.21,0.63,0.21,1.4,0.21,2.031c0,0.77,0,1.539,0,2.311c0,1.33-0.07,2.73-0.07,4.131
		c0,2.031,0,4.132-0.07,6.231c0,2.381-0.069,4.763-0.069,7.073c0,0.771,0.069,1.47,0.069,2.17c0,0.562,0,1.121,0,1.612
		c0,0.279,0,0.489,0,0.7v0.068c0,0.141,0,0.281,0,0.421c0.07,0.28,0.211,0.63,0.211,0.91c0,0.771-0.351,1.471-0.841,1.961
		c-0.56,0.489-1.19,0.7-1.891,0.7c-1.119,0-2.1-0.421-3.011-1.121c-0.28-0.21-0.561-0.489-0.77-0.77
		c-0.7,0.489-1.472,0.77-2.313,0.77c-0.84,0-1.54-0.28-2.239-0.7c-0.7-0.42-1.4-0.91-2.03-1.47v-0.07h-0.07
		c-0.07-0.069-0.141-0.21-0.28-0.28c0,0.63-0.211,1.331-0.561,1.82c-0.561,0.7-1.401,1.051-2.312,1.051c-0.63,0-1.26-0.21-1.89-0.42
		c-0.631-0.279-1.331-0.561-1.75-1.051l-0.07-0.069l0,0c-0.21-0.28-0.421-0.631-0.491-0.98c-0.068,0.63-0.35,1.19-0.84,1.61
		c-0.561,0.56-1.33,0.84-2.101,0.84c-1.4,0-2.871-0.35-3.711-1.47c-0.21-0.28-0.35-0.49-0.42-0.84
		c-0.07,0.771-0.491,1.399-1.051,1.89c-0.561,0.49-1.262,0.84-1.961,0.84c-1.12,0-2.17-0.279-3.011-0.98
		c-0.421-0.35-0.771-0.84-0.91-1.33c-0.141,0.211-0.211,0.352-0.35,0.49h-0.07c-0.491,0.561-1.191,0.771-1.891,0.771
		c-1.33,0-2.521-0.352-3.432-1.401c-0.489-0.63-0.771-1.33-0.91-2.101c-0.141,0.35-0.351,0.63-0.56,0.911
		c-1.542,2.1-3.572,3.431-6.163,3.431c-1.26,0-2.521-0.28-3.712-0.771c-1.119-0.489-2.17-1.189-3.01-2.1
		c-0.98-1.121-1.54-2.592-1.891-3.991c-0.28,1.051-0.7,2.1-1.261,3.081c-1.051,1.82-2.591,3.641-4.831,3.641
		c-0.421,0-0.84-0.07-1.261-0.21c-0.35-0.07-0.771-0.28-1.121-0.421l-3.081-1.54l-0.069-0.07c-0.56-0.419-1.05-0.91-1.4-1.47
		c-0.42,0.63-0.84,1.19-1.331,1.681c-0.63,0.63-1.401,1.331-2.171,1.68c-0.699,0.28-1.4,0.421-2.17,0.421
		c-0.699,0-1.47-0.28-2.17-0.561c-0.491-0.209-1.261-0.561-1.681-0.91l0,0c-0.07,0-0.07,0-0.07-0.07h-0.07l0,0
		c-1.331-1.12-2.311-2.52-2.871-4.062c-0.14,0.351-0.351,0.63-0.491,0.98c-0.769,1.262-1.679,2.451-2.94,3.361
		c-1.051,0.771-2.311,1.331-3.712,1.331c-0.979,0-1.889-0.28-2.8-0.561c-0.069,0-0.069-0.07-0.139-0.07l0,0h-0.07
		c-0.28-0.141-0.701-0.209-1.051-0.281c-0.63-0.209-1.331-0.419-1.89-0.838l0,0l0,0c-1.681-1.331-2.8-3.223-3.502-5.183
		c-0.91-2.311-1.26-4.763-1.26-7.213c0-2.66,0.42-5.252,1.26-7.773c0.771-2.379,1.96-4.689,3.571-6.582
		c0.701-0.84,1.471-1.609,2.452-2.24c0.771-0.56,1.751-1.119,2.731-1.119c0.77,0,1.54,0.209,2.241,0.489
		c0.98,0.421,2.031,1.12,2.941,1.681c1.121,0.771,2.101,1.681,2.73,2.871c0.561,1.261,0.702,2.871,0.702,4.201
		s-0.07,2.801-0.631,4.061c-0.209,0.631-0.56,1.191-1.049,1.611c0.56,0.279,1.049,0.7,1.47,1.05c0.491-1.47,1.121-3.081,2.031-4.341
		c0.35-0.561,0.84-0.98,1.401-1.33c0.63-0.281,1.26-0.42,1.96-0.42c0.91,0,1.961,0.279,2.8,0.56c0.91,0.28,1.892,0.7,2.592,1.401
		c0.63,0.629,1.12,1.469,1.399,2.311c0.211-0.491,0.42-0.98,0.631-1.471c0.28-0.701,0.77-1.471,1.329-1.961
		c0.701-0.631,1.472-0.912,2.311-0.912c0.631,0,1.612,0.281,2.242,0.421c0.77,0.211,1.681,0.421,2.45,0.771
		C81.513,23.668,82.564,24.928,83.194,26.469z M65.058,35.993c-0.069,0-0.139,0-0.209,0v0.14
		C64.918,36.063,64.989,36.063,65.058,35.993z M119.748,21.077c-0.141,0.281-0.211,0.49-0.351,0.699
		c-0.281,0.421-0.561,0.771-0.911,1.051c0.49,0.281,0.911,0.701,1.191,1.121C119.677,23.038,119.677,22.057,119.748,21.077z
		 M98.95,29.27c0-0.84,0-1.681,0-2.521v-1.121c0-0.28,0-0.489,0-0.771c0.069-0.699,0.069-1.47,0.069-2.24
		c-0.84,0.771-1.961,1.051-3.081,1.051s-2.171-0.421-2.871-1.331c-0.349-0.421-0.63-0.979-0.84-1.54
		c-0.209,1.399-0.35,2.941-0.489,4.342c-0.141,2.311-0.211,4.621-0.211,6.933c0,0.979,0,2.03,0.141,3.01
		c0.07,0.42,0.14,0.841,0.21,1.33c0.07-0.139,0.141-0.209,0.209-0.279c0.562-0.91,0.91-1.891,1.121-2.941
		c0-0.14,0.07-0.35,0.07-0.56c0.14-1.121,0.56-2.172,1.47-2.941c0.28-0.28,0.63-0.561,1.051-0.771
		c0.421-0.209,0.84-0.279,1.26-0.279C97.759,28.64,98.389,28.849,98.95,29.27z"/>
	<g id="_129872140528_3_">
		<path fill="#ED2224" d="M42.161,29.69c0-2.45,0.35-4.9,1.19-7.213c0.771-2.38,1.821-4.411,3.221-6.021
			c0.631-0.771,1.332-1.471,2.101-1.961c0.701-0.489,1.331-0.77,1.751-0.77c0.49,0,1.049,0.14,1.54,0.35
			c0.49,0.209,1.401,0.771,2.731,1.54c0.98,0.7,1.681,1.401,2.031,2.171c0.419,0.771,0.56,1.891,0.56,3.432
			c0,1.471-0.141,2.66-0.49,3.432c-0.281,0.84-0.771,1.26-1.331,1.26c-0.07,0-0.21-0.069-0.491-0.14c-0.209,0-0.35-0.07-0.491-0.07
			c-0.069,0-0.209,0-0.28,0.07c-0.139,0-0.28,0-0.35,0c-0.49,0-0.91-0.351-1.19-1.12c-0.28-0.771-0.35-1.891-0.35-3.361
			c0-0.35,0-0.77,0.139-1.471c0.141-0.63,0.211-1.191,0.211-1.54c0-0.211-0.07-0.421-0.211-0.632
			c-0.139-0.139-0.28-0.279-0.419-0.279c-0.209,0-0.561,0.279-1.191,0.911c-0.56,0.56-1.049,1.19-1.47,1.891
			c-0.84,1.47-1.47,3.011-1.82,4.69c-0.42,1.611-0.631,3.502-0.631,5.672c0,2.521,0.281,4.552,0.771,6.163
			c0.491,1.54,1.05,2.311,1.821,2.311c0.419,0,0.839-0.141,1.26-0.49c0.419-0.28,0.839-0.771,1.26-1.331
			c0.351-0.561,0.701-1.26,0.98-2.101c0.35-0.91,0.49-1.47,0.49-1.75c0-0.141,0-0.21-0.14-0.28c-0.07-0.07-0.281-0.07-0.491-0.07
			c-0.07,0-0.209,0-0.489,0c-0.281,0-0.56,0-0.771,0c-0.56,0-1.05-0.069-1.4-0.14c-0.419-0.069-0.699-0.21-0.91-0.42
			c-0.35-0.281-0.699-0.7-0.91-1.191c-0.28-0.42-0.42-0.771-0.42-0.979c0-0.421,0.561-0.701,1.751-0.77c0.07,0,0.07,0,0.141,0
			c0.979-0.141,2.1-0.352,3.22-0.562c1.121-0.279,1.821-0.42,2.101-0.42c0.42,0,0.771,0,1.121-0.069c0.07,0,0.07,0,0.07,0
			c0.28,0,0.701,0.28,1.26,0.84c0.63,0.49,0.91,0.91,0.91,1.189c0,1.121-0.211,2.452-0.63,3.853c-0.42,1.399-0.98,2.729-1.681,3.921
			c-0.7,1.261-1.47,2.172-2.381,2.871c-0.91,0.63-1.82,0.981-2.731,0.981c-0.56,0-1.329-0.141-2.24-0.421
			c-0.069-0.07-0.14-0.07-0.14-0.07c-0.209-0.07-0.63-0.211-1.26-0.35c-0.561-0.141-0.98-0.351-1.261-0.49
			c-1.19-0.981-2.17-2.451-2.94-4.481C42.511,34.312,42.161,32.14,42.161,29.69z M65.408,26.609c-0.069,0-0.139,0.07-0.28,0.211
			c-0.139,0.21-0.209,0.349-0.28,0.56c-0.141,0.421-0.28,0.98-0.49,1.681c-0.42,1.19-0.631,1.891-0.631,2.03
			c0,0.07,0.07,0.07,0.141,0.14c0,0,0.07,0.07,0.141,0.07c0.209,0,0.699-0.14,1.399-0.279c0.63-0.211,0.98-0.351,0.98-0.491
			c0-1.189-0.07-2.17-0.209-2.87C65.968,26.959,65.758,26.609,65.408,26.609z M59.456,34.801c0-1.82,0.28-3.711,0.841-5.741
			c0.63-1.96,1.26-3.502,1.96-4.411c0.28-0.421,0.56-0.631,0.84-0.84c0.281-0.141,0.63-0.211,1.121-0.211
			c0.56,0,1.331,0.141,2.311,0.49c0.91,0.279,1.54,0.631,1.89,0.98c0.491,0.42,0.91,1.26,1.191,2.311
			c0.28,1.12,0.419,2.381,0.419,3.781c0,0.21,0,0.561,0,0.979c-0.069,0.421-0.069,0.701-0.069,0.911c0,0.28-0.491,0.49-1.401,0.631
			c-0.771,0.141-1.471,0.209-2.101,0.35c-0.35,0-0.771,0.07-1.331,0.21c-1.331,0.14-1.96,0.56-1.96,1.33v0.491v0.91
			c0,0.489,0.07,0.84,0.211,1.119c0.139,0.211,0.419,0.351,0.699,0.351c0.42,0,0.911-0.21,1.541-0.7c0.56-0.421,1.19-0.98,1.75-1.75
			c0.141-0.141,0.28-0.351,0.42-0.63c0.42-0.562,0.7-0.841,0.91-0.841c0.42,0,0.841,0.21,1.261,0.49
			c0.419,0.351,0.56,0.699,0.56,1.051c0,0,0,0.069-0.07,0.21c-0.07,0.139-0.07,0.209-0.07,0.279c0,0,0,0.069,0.07,0.21
			c0,0.07,0,0.141,0,0.211c0,0.209-0.209,0.63-0.63,1.399c-0.491,0.771-0.98,1.471-1.61,2.032c-0.7,0.77-1.261,1.189-1.61,1.329
			c-0.42,0.211-0.911,0.28-1.471,0.28c-0.28,0-0.77-0.14-1.47-0.42c-0.701-0.279-1.121-0.49-1.191-0.56
			c-0.07-0.07-0.139-0.07-0.209-0.141C60.366,39.354,59.456,37.322,59.456,34.801z M75.281,34.732c0,1.051,0.07,2.03,0.28,2.73
			c0.211,0.771,0.421,1.191,0.7,1.191c0.491,0,0.98-0.7,1.472-2.172c0.56-1.47,0.771-3.011,0.771-4.621
			c0-1.261-0.07-2.38-0.351-3.29c-0.21-0.981-0.49-1.402-0.771-1.402c-0.351,0-0.771,0.841-1.33,2.521
			C75.561,31.44,75.281,33.122,75.281,34.732z M71.291,34.171c0-1.399,0.209-2.941,0.56-4.552c0.35-1.681,0.84-3.08,1.33-4.271
			c0.281-0.629,0.631-1.12,0.98-1.4c0.35-0.279,0.701-0.42,1.121-0.42c0.211,0,0.771,0.141,1.821,0.35
			c0.98,0.281,1.681,0.49,2.171,0.701c1.05,0.49,1.89,1.4,2.451,2.801c0.56,1.47,0.84,3.221,0.84,5.393c0,2.45-0.49,4.62-1.54,6.441
			c-1.051,1.821-2.102,2.731-3.291,2.731c-0.28,0-0.491,0-0.771-0.141c-0.279-0.07-0.56-0.14-0.839-0.28l-2.942-1.47
			c-0.629-0.49-1.12-1.191-1.47-2.171C71.43,36.973,71.291,35.711,71.291,34.171z"/>
		<path fill="#F26522" d="M92.437,42.085c-0.98,0-1.961-0.211-3.011-0.632c-1.051-0.419-1.82-0.98-2.382-1.681
			c-0.699-0.77-1.26-1.89-1.609-3.432c-0.42-1.54-0.561-3.36-0.561-5.391c0-2.38,0.07-7.772,0.631-10.294
			c0.49-2.521,1.189-4.551,2.03-6.162c0.63-1.33,1.33-2.24,2.101-2.87c0.701-0.63,1.541-0.911,2.382-0.911
			c0.489,0,1.189,0.211,1.96,0.561c0.84,0.421,1.68,1.05,2.66,1.82c0.561,0.35,0.98,0.98,1.33,1.891
			c0.351,0.841,0.491,1.891,0.491,2.941c0,1.75-0.141,2.871-0.491,3.291c-0.35,0.49-1.05,0.699-2.03,0.699
			c-0.63,0-1.19-0.209-1.54-0.699c-0.35-0.42-0.631-1.12-0.77-2.101c-0.07-0.21-0.141-0.491-0.141-0.91
			c-0.351-2.03-0.77-3.081-1.19-3.081c-0.211,0-0.42,0.209-0.56,0.56c-0.211,0.421-0.351,0.91-0.561,1.681
			c-0.07,0.141-0.14,0.49-0.21,0.98c-0.911,3.641-1.191,10.153-1.191,13.726c0,1.119,0.07,2.24,0.211,3.221
			c0.14,1.049,0.28,1.96,0.56,2.8c0.07,0.211,0.21,0.421,0.421,0.491c0.14,0.14,0.42,0.14,0.771,0.14c0.419,0,1.05-0.49,1.75-1.611
			c0.771-1.119,1.189-2.311,1.4-3.641c0.07-0.14,0.07-0.35,0.14-0.63c0.07-0.77,0.35-1.401,0.841-1.82
			c0.28-0.281,0.56-0.421,0.699-0.562c0.141-0.068,0.351-0.068,0.49-0.068c0.491,0,0.98,0.209,1.401,0.699
			c0.42,0.49,0.63,1.12,0.63,1.891c0,2.45-0.63,4.622-1.891,6.442C95.869,41.245,94.328,42.085,92.437,42.085z M103.501,41.315
			c-0.911,0-1.611-0.28-2.102-0.842c-0.42-0.489-0.63-1.33-0.63-2.52c0-0.211,0-0.491,0-0.98c0-0.491,0-0.841,0-1.121
			s0-1.399,0-3.431c-0.07-1.962-0.07-3.851-0.07-5.672v-1.121c0-0.07,0-0.351,0-0.771c0-1.61,0-4.34,0-5.881
			c0-0.49,0.141-2.312,0.141-3.151c-0.07-0.841-0.07-1.401-0.07-1.681c0-0.701,0.141-1.33,0.28-1.891
			c0.07-0.141,0.07-0.279,0.07-0.279c0-0.28,0.07-0.491,0.209-0.631c0.07-0.141,0.28-0.141,0.561-0.141
			c1.05,0,1.821,0.141,2.171,0.421c0.421,0.28,0.56,1.05,0.56,2.24v0.699c0,0.421,0,0.981,0,1.681c0,0.701-0.139,2.381-0.139,2.662
			c0,0.21,0,0.561,0,1.05c0,0.562,0,2.171,0,2.521c0,1.051,0,2.102-0.141,3.151c-0.07,0.211-0.07,0.421-0.07,0.491
			s0,0.209,0.07,0.209c0,0.07,0.07,0.141,0.141,0.141c0.068,0,0.279-0.35,0.77-1.051c0.49-0.699,0.981-0.98,1.611-0.98
			c0.351,0,0.91,0.141,1.68,0.42c0.771,0.281,1.33,0.631,1.61,0.911c0.49,0.421,0.841,1.051,0.98,1.82
			c0.211,0.841,0.35,2.03,0.35,3.641c0,0.561-0.068,1.121-0.139,1.751c0,0.561-0.07,0.842-0.07,0.91c0,0.07,0.07,0.211,0.07,0.421
			c0,0.141,0,0.28,0,0.35c0,1.82-0.07,3.501-0.351,5.182c0,0.28,0,0.421,0,0.491s0,0.209,0,0.42c0,0.14,0,0.35,0,0.42
			c0,0.209-0.141,0.49-0.421,0.7c-0.35,0.28-0.63,0.42-0.84,0.42c-0.841,0-1.471-0.14-1.89-0.561
			c-0.421-0.351-0.562-0.91-0.562-1.61c0-0.419,0-1.54,0.07-3.361c0.07-1.82,0.07-3.431,0.07-4.761V30.74c0-0.979,0-1.68-0.07-1.961
			c0-0.279-0.139-0.419-0.279-0.419c-0.49,0-1.051,1.05-1.681,3.08c-0.701,2.102-0.98,4.482-0.98,7.214c0,0.139,0,0.419,0,0.77
			c0,0.35,0,0.631,0,0.841c0,0.35-0.07,0.56-0.211,0.771C103.991,41.174,103.782,41.315,103.501,41.315z M116.805,21.708
			c-0.91,0-1.61-0.21-2.1-0.631c-0.491-0.42-0.771-0.979-0.771-1.68c0-0.069,0-0.14,0.07-0.28c0-0.14,0-0.21,0-0.28s0-0.211,0-0.35
			c-0.07-0.141-0.07-0.21-0.07-0.28c0-0.63,0.141-1.12,0.561-1.611c0.42-0.419,0.91-0.629,1.541-0.629c0.419,0,0.84,0.21,1.26,0.56
			c0.42,0.42,0.631,0.631,0.631,0.77c0,0.281,0.07,0.561,0.209,0.911c0.141,0.28,0.211,0.489,0.211,0.56
			c0,0.91-0.141,1.611-0.49,2.1C117.576,21.427,117.226,21.708,116.805,21.708z M116.875,41.875c-1.19,0-1.961-0.28-2.311-0.771
			c-0.42-0.561-0.631-1.961-0.631-4.201v-0.98c0-1.05,0-2.24,0.07-3.501c0-1.261,0-1.962,0-2.171V28.15
			c0-2.03,0.07-3.292,0.141-3.782c0.14-0.42,0.42-0.629,0.979-0.629c0.981,0,1.751,0.139,2.311,0.42
			c0.562,0.35,0.841,0.699,0.841,1.26c0,0.07,0,0.14,0,0.351c-0.141,1.61-0.211,3.431-0.211,5.321c0,0.07,0,0.21,0,0.42
			c-0.068,1.191-0.068,2.381-0.068,3.502v2.17c0,0.631,0,1.401,0.068,2.172c0,0.77,0,1.26,0,1.329c0,0.421-0.068,0.7-0.279,0.911
			C117.576,41.804,117.295,41.875,116.875,41.875z M124.017,41.945c-0.279,0-0.699-0.07-1.26-0.28c-0.56-0.211-0.91-0.42-1.12-0.63
			c-0.141-0.211-0.279-0.7-0.35-1.471c-0.07-0.771-0.141-2.312-0.141-4.691v-1.821c0-1.4,0.07-3.852,0.211-7.353
			c0.068-3.502,0.139-7.422,0.209-9.173c0-0.35,0-0.841,0-1.33c0.07-1.891,0.28-2.801,0.701-2.801c0.979,0,1.819,0.14,2.45,0.49
			c0.7,0.279,1.05,0.699,1.05,1.12c0,0.979-0.07,3.851-0.279,5.951c-0.141,2.101-0.211,3.642-0.211,4.622v1.541
			c0,0.489,0,1.26-0.069,2.311c-0.07,1.051-0.07,1.891-0.07,2.38c0,0.63,0,1.4,0,2.312c0.07,0.98,0.07,1.61,0.07,1.96
			c0,0.63,0,1.26-0.07,2.03c0,0.771,0,1.261,0,1.401c0,0.35,0,0.771,0,1.191c0.07,0.419,0.07,0.7,0.07,0.7
			c0,0.56-0.141,0.979-0.281,1.189C124.718,41.804,124.438,41.945,124.017,41.945z M133.822,27.379c-0.281,0-0.632,0.28-0.911,0.84
			c-0.351,0.56-0.63,1.471-1.05,2.802c-0.352,1.26-0.631,2.591-0.771,3.78c-0.211,1.262-0.351,2.24-0.351,3.012
			c0,0.211,0.07,0.35,0.14,0.42c0.07,0.14,0.141,0.14,0.28,0.14c0.281,0,0.631-0.28,1.051-0.91c0.49-0.63,0.911-1.399,1.261-2.311
			c0.351-0.84,0.63-1.75,0.77-2.73c0.141-0.911,0.211-2.312,0.211-4.062c0-0.351-0.07-0.56-0.141-0.7
			C134.171,27.45,134.031,27.379,133.822,27.379z M134.732,40.264v-0.351c0-0.141,0-0.279-0.07-0.35c-0.07,0-0.14,0-0.28,0
			c0,0-0.351,0.35-0.91,1.05c-0.631,0.701-1.261,1.051-1.962,1.051c-0.35,0-0.77-0.211-1.329-0.49
			c-0.63-0.351-1.191-0.77-1.751-1.331c-0.489-0.42-0.77-0.98-0.98-1.681c-0.209-0.7-0.279-1.751-0.279-3.081
			c0-1.399,0.209-3.01,0.771-4.831c0.489-1.82,1.049-3.221,1.681-4.131c0.84-1.262,1.609-2.102,3.01-1.682
			c0.56,0.141,1.121,0.211,1.61,0.211c0.141,0,0.211-0.07,0.281-0.141c0.21-0.211,0.14-3.781,0.14-4.061
			c0.141-0.771,0.141-1.401,0.141-1.891c0-0.631,0-1.33-0.141-2.102c-0.07-0.771-0.07-1.26-0.07-1.471
			c0-0.421,0.07-0.77,0.211-0.979c0.139-0.21,0.35-0.351,0.56-0.351c0.141,0,0.42,0.07,0.98,0.21
			c0.49,0.141,1.051,0.351,1.681,0.489c0.209,0.141,0.349,0.281,0.419,0.421c0.07,0.21,0.07,0.7,0.07,1.401c0,0.068,0,0.84,0,2.24
			c0,1.471,0,2.871,0,4.201c0,1.121-0.07,3.222-0.07,6.161c-0.07,2.942-0.07,5.393-0.07,7.144c0,0.63,0,1.399,0,2.24
			s0.07,1.331,0.07,1.542c0,0.209-0.07,0.419-0.07,0.7c0,0.278,0,0.489,0,0.63c0,0.069,0,0.21,0.07,0.419
			c0.07,0.141,0.141,0.28,0.141,0.351c0,0.281-0.141,0.49-0.28,0.7c-0.209,0.14-0.42,0.21-0.7,0.21c-0.63,0-1.33-0.21-1.96-0.7
			C135.011,41.524,134.732,40.964,134.732,40.264z"/>
	</g>
	<path fill="#010101" d="M52.523,46.496c0.63,0,1.191,0.21,1.681,0.631c0.771,0.63,1.121,1.471,1.121,2.521
		c0,0.841-0.28,1.61-0.91,2.24c-0.491,0.49-1.121,0.841-1.892,0.841c-0.49,0-0.98-0.141-1.331-0.421
		c-0.56-0.279-0.98-0.77-1.19-1.33c-0.209-0.421-0.35-0.91-0.35-1.399c0-0.562,0.211-1.121,0.491-1.61
		c0.28-0.491,0.699-0.841,1.19-1.121C51.684,46.635,52.103,46.496,52.523,46.496z M59.736,52.377h0.7v0.28h-1.54v-0.7
		c-0.28,0.56-0.7,0.771-1.331,0.771c-0.42,0-0.77-0.07-1.05-0.351c-0.21-0.211-0.28-0.56-0.28-0.84v-2.171h-0.7v-0.28h1.051
		c0.07,0,0.14,0,0.21-0.07c0.069,0,0.14-0.07,0.21-0.139l0.07-0.141v3.081c0,0.14,0,0.349,0.139,0.489
		c0.07,0.141,0.28,0.21,0.42,0.21c0.42,0,0.699-0.21,0.98-0.489c0.209-0.28,0.28-0.562,0.28-0.841v-1.82h-0.63v-0.28h0.98
		c0.21,0,0.28-0.07,0.419-0.209l0.07-0.141V52.377z M62.046,49.647c0-0.069,0.07-0.14,0.141-0.21
		c0.209-0.351,0.491-0.491,0.841-0.491c0.419,0,0.699,0.141,0.699,0.562c0,0.279-0.139,0.419-0.419,0.419
		c-0.28,0-0.42-0.14-0.42-0.419c0-0.141,0-0.21,0.14-0.351c-0.07,0-0.14,0-0.14,0c-0.07,0-0.351,0.28-0.421,0.28
		c-0.139,0.21-0.28,0.42-0.35,0.699c-0.07,0.211-0.07,0.561-0.07,0.771v1.471h0.771v0.28h-2.311v-0.28h0.7v-3.011h-0.7v-0.28h0.91
		c0.211,0,0.42-0.07,0.491-0.209l0.139-0.141V49.647z M66.809,46.986l-0.07-0.14h-0.771v-0.28h1.751l1.892,4.411l1.82-4.411h1.82
		v0.28h-0.91v5.531h0.91v0.28h-2.73v-0.28h0.84v-4.972l-2.1,5.182l-2.172-5.041v3.92c0,0.211,0,0.421,0,0.632
		c0,0.139,0.07,0.209,0.21,0.209c0.141,0.07,0.281,0.07,0.42,0.07h0.28v0.28h-2.031v-0.28h0.35c0.141,0,0.281,0,0.42-0.07
		c0.07-0.141,0.07-0.279,0.07-0.42V46.986z M74.581,49.367l1.051,2.381l0.63-1.681c0.07-0.141,0.141-0.351,0.141-0.56
		c0-0.141-0.279-0.141-0.42-0.141h-0.421v-0.28h1.892v0.28h-0.351c-0.141,0-0.209,0-0.35,0.141c0,0.07-0.07,0.279-0.141,0.35
		l-1.12,2.73c-0.07,0.211-0.141,0.491-0.211,0.7l-0.07,0.421c-0.068,0.49-0.35,1.189-0.91,1.189c-0.141,0-0.28-0.068-0.419-0.139
		c-0.07-0.07-0.14-0.21-0.14-0.351s0.07-0.21,0.14-0.351c0.069-0.07,0.21-0.141,0.279-0.141c0.141,0,0.211,0.07,0.35,0.141
		c0.07,0.07,0.141,0.141,0.141,0.28v0.07v0.07c0.141,0,0.28-0.7,0.351-0.771l0.07-0.421l0.07-0.42l-1.471-3.501h-0.56v-0.28h2.1
		v0.28H74.581z M81.024,49.647c0.07-0.069,0.07-0.14,0.139-0.21c0.211-0.351,0.491-0.491,0.911-0.491
		c0.351,0,0.631,0.141,0.631,0.562c0,0.279-0.141,0.419-0.421,0.419s-0.42-0.14-0.42-0.419c0-0.141,0.07-0.21,0.14-0.351
		c-0.069,0-0.14,0-0.14,0c-0.07,0-0.351,0.28-0.351,0.28c-0.21,0.21-0.351,0.42-0.419,0.699c-0.07,0.211-0.07,0.561-0.07,0.771
		v1.471h0.77v0.28h-2.312v-0.28h0.702v-3.011h-0.702v-0.28h0.98c0.141,0,0.351-0.07,0.491-0.209l0.07-0.141V49.647z M83.754,50.556
		c0,0.211,0,0.421,0,0.631c0,0.211,0,0.771,0.14,0.979c0.211,0.281,0.491,0.351,0.841,0.351c0.421,0,0.84-0.21,1.12-0.489
		c0.141-0.21,0.279-0.49,0.35-0.7l0,0h0.211v0.07c-0.141,0.56-0.42,0.909-0.91,1.189c-0.21,0.141-0.49,0.141-0.771,0.141
		c-0.56,0-1.05-0.211-1.471-0.63c-0.28-0.351-0.421-0.771-0.421-1.191c0-0.56,0.141-0.98,0.491-1.399
		c0.351-0.351,0.771-0.63,1.26-0.63c0.351,0,0.631,0.068,0.911,0.279c0.21,0.141,0.42,0.351,0.561,0.63
		c0.139,0.14,0.279,0.421,0.279,0.631c0,0.139-0.07,0.139-0.141,0.139H83.754z M86.765,51.257h0.211v0.07
		c0.068,0.21,0.139,0.42,0.279,0.63c0.21,0.35,0.56,0.56,0.98,0.56c0.28,0,0.489-0.069,0.7-0.21c0.14-0.141,0.21-0.35,0.21-0.56
		c0-0.49-0.28-0.63-0.771-0.63h-0.629c-0.211,0-0.491-0.07-0.632-0.281c-0.209-0.208-0.279-0.489-0.279-0.77
		c0-0.351,0.07-0.63,0.35-0.841c0.211-0.28,0.562-0.349,0.91-0.349c0.351,0,0.7,0.139,0.98,0.279c0,0,0,0,0.07,0v-0.07v-0.07v-0.07
		v-0.068h0.21l0.07,1.189h-0.28v-0.07c0-0.21-0.07-0.419-0.21-0.56c-0.211-0.211-0.561-0.28-0.841-0.28c-0.21,0-0.419,0-0.63,0.141
		c-0.14,0.069-0.28,0.21-0.28,0.419c0,0.491,0.491,0.561,0.84,0.561h0.562c0.35,0,0.63,0.141,0.77,0.352
		c0.21,0.208,0.28,0.489,0.28,0.77c0,0.35-0.07,0.63-0.35,0.909c-0.281,0.28-0.63,0.421-1.051,0.421c-0.351,0-0.7-0.141-0.98-0.28
		c0,0-0.141-0.07-0.211-0.07c-0.068,0-0.068,0.14-0.068,0.14v0.141h-0.211V51.257z M91.387,52.098v2.521h0.699v0.279h-2.24v-0.279
		h0.7v-5.252h-0.7v-0.28h0.91c0.211,0,0.421,0,0.49-0.209l0.141-0.21v0.84c0.28-0.421,0.631-0.63,1.19-0.63s1.051,0.279,1.4,0.7
		c0.28,0.349,0.49,0.77,0.49,1.189c0,0.631-0.21,1.12-0.631,1.47c-0.35,0.351-0.771,0.491-1.26,0.491
		C92.086,52.728,91.667,52.517,91.387,52.098z M96.918,48.877c0.42,0,0.841,0.209,1.19,0.489c0.491,0.35,0.7,0.841,0.7,1.47
		c0,0.491-0.209,0.981-0.56,1.33c-0.35,0.351-0.841,0.562-1.4,0.562c-0.491,0-0.98-0.211-1.401-0.562
		c-0.35-0.349-0.56-0.839-0.56-1.33c0-0.629,0.28-1.05,0.699-1.47C96.008,49.086,96.428,48.877,96.918,48.877z M100.629,49.647
		c0.351-0.49,0.771-0.701,1.401-0.701c0.42,0,0.839,0.07,1.05,0.421c0.21,0.211,0.21,0.49,0.21,0.77v2.241h0.7v0.28h-2.24v-0.28h0.7
		v-2.521c0-0.35-0.07-0.7-0.49-0.7c-0.351,0-0.561,0.141-0.84,0.28c-0.21,0.21-0.351,0.42-0.491,0.699v2.241h0.7v0.28h-2.17v-0.28
		h0.63v-3.011h-0.63v-0.28H100c0.21,0,0.42-0.07,0.56-0.209l0.069-0.21V49.647z M104.201,51.257h0.211v0.07
		c0.07,0.21,0.139,0.42,0.279,0.63c0.21,0.35,0.561,0.56,0.98,0.56c0.211,0,0.491-0.069,0.63-0.21
		c0.211-0.141,0.281-0.35,0.281-0.56c0-0.49-0.35-0.63-0.771-0.63h-0.63c-0.281,0-0.491-0.07-0.7-0.281
		c-0.141-0.208-0.281-0.489-0.281-0.77c0-0.351,0.141-0.63,0.42-0.841c0.211-0.28,0.562-0.349,0.912-0.349
		c0.35,0,0.63,0.139,0.979,0.279l0,0v-0.07v-0.07v-0.07v-0.068h0.28v1.189h-0.21v-0.07c-0.07-0.21-0.07-0.419-0.211-0.56
		c-0.209-0.211-0.56-0.28-0.909-0.28c-0.141,0-0.351,0-0.562,0.141c-0.21,0.069-0.28,0.21-0.28,0.419
		c0,0.491,0.491,0.561,0.842,0.561h0.56c0.279,0,0.561,0.141,0.771,0.352c0.21,0.208,0.28,0.489,0.28,0.77
		c0,0.35-0.141,0.63-0.351,0.909c-0.28,0.28-0.7,0.421-1.121,0.421c-0.279,0-0.63-0.141-0.91-0.28c-0.07,0-0.141-0.07-0.209-0.07
		c-0.07,0-0.07,0.14-0.07,0.14v0.141h-0.211V51.257z M108.052,49.367h-0.7v-0.28h0.91c0.211,0,0.421-0.07,0.491-0.209l0.139-0.21
		v3.71h0.631v0.28h-2.171v-0.28h0.7V49.367z M108.473,46.496c0.14,0,0.21,0.07,0.28,0.14c0.139,0.07,0.139,0.211,0.139,0.351
		c0,0.07,0,0.211-0.139,0.281c-0.07,0.139-0.141,0.139-0.28,0.139c-0.141,0-0.281,0-0.351-0.139c-0.07-0.07-0.141-0.211-0.141-0.281
		c0-0.14,0.07-0.28,0.141-0.351C108.192,46.566,108.333,46.496,108.473,46.496z M111.064,49.578c0.28-0.421,0.7-0.7,1.26-0.7
		c0.561,0,0.98,0.279,1.331,0.63c0.35,0.35,0.56,0.84,0.56,1.329c0,0.562-0.28,1.051-0.699,1.4
		c-0.351,0.351-0.771,0.491-1.262,0.491c-0.489,0-0.909-0.141-1.189-0.562v0.491h-1.471v-0.28h0.63v-5.602h-0.63v-0.21h0.909
		c0.141,0,0.351-0.07,0.491-0.279l0.07-0.141V49.578z M115.125,49.367h-0.63v-0.28h0.91c0.21,0,0.42-0.07,0.49-0.209l0.07-0.21v3.71
		h0.7v0.28h-2.171v-0.28h0.63V49.367z M115.615,46.496c0.07,0,0.21,0.07,0.28,0.14c0.141,0.07,0.141,0.211,0.141,0.351
		c0,0.07,0,0.211-0.141,0.281c-0.07,0.139-0.21,0.139-0.28,0.139c-0.14,0-0.279,0-0.35-0.139c-0.141-0.07-0.141-0.211-0.141-0.281
		c0-0.14,0.07-0.28,0.141-0.351C115.335,46.566,115.475,46.496,115.615,46.496z M117.365,46.776h-0.699v-0.21h0.91
		c0.21,0,0.421-0.07,0.56-0.279l0.07-0.141v6.231h0.701v0.28h-2.241v-0.28h0.699V46.776z M119.677,49.367h-0.701v-0.28h0.91
		c0.211,0,0.421-0.07,0.491-0.209l0.14-0.21v3.71h0.63v0.28h-2.171v-0.28h0.701V49.367z M120.097,46.496
		c0.14,0,0.21,0.07,0.351,0.14c0.069,0.07,0.14,0.211,0.14,0.351c0,0.07-0.07,0.211-0.14,0.281
		c-0.141,0.139-0.211,0.139-0.351,0.139c-0.141,0-0.281,0-0.35-0.139c-0.07-0.07-0.141-0.211-0.141-0.281
		c0-0.14,0.07-0.28,0.141-0.351C119.886,46.566,119.957,46.496,120.097,46.496z M121.847,49.367h-0.77v-0.28h0.28
		c0.489,0,0.77-0.279,0.98-0.7c0-0.14,0.069-0.28,0.069-0.351v-0.139h0.279v1.189h2.872v0.28h-0.562l0.98,2.381l0.7-1.681
		c0.07-0.141,0.141-0.351,0.141-0.56c0-0.141-0.28-0.141-0.42-0.141h-0.421v-0.28h1.821v0.28h-0.28c-0.141,0-0.279,0-0.35,0.141
		c0,0.07-0.141,0.279-0.141,0.35l-1.12,2.73c-0.07,0.211-0.141,0.491-0.211,0.7l-0.07,0.421c-0.139,0.49-0.35,1.189-0.909,1.189
		c-0.141,0-0.28-0.068-0.421-0.139c-0.069-0.07-0.14-0.21-0.14-0.351s0.07-0.21,0.14-0.351c0.07-0.07,0.211-0.141,0.28-0.141
		c0.141,0,0.21,0.07,0.35,0.141c0.07,0.07,0.141,0.141,0.141,0.28v0.07v0.07c0.141,0,0.28-0.7,0.351-0.771l0.07-0.421l0.07-0.42
		l-1.472-3.501h-1.4v2.591c0,0.279,0,0.49,0.281,0.49c0.279,0,0.489-0.211,0.56-0.49l0,0l0.28,0.07l0,0
		c-0.21,0.489-0.561,0.7-0.98,0.7c-0.28,0-0.489-0.07-0.7-0.211c-0.21-0.14-0.28-0.419-0.28-0.63V49.367z M128.15,51.748
		c0.14,0,0.209,0.07,0.35,0.14c0.07,0.07,0.141,0.211,0.141,0.35c0,0.141-0.07,0.211-0.141,0.351c-0.141,0.07-0.21,0.141-0.35,0.141
		c-0.141,0-0.28-0.07-0.351-0.141c-0.07-0.14-0.14-0.21-0.14-0.351c0-0.139,0.069-0.279,0.14-0.35
		C127.94,51.818,128.009,51.748,128.15,51.748z M130.25,51.748c0.141,0,0.281,0.07,0.35,0.14c0.07,0.07,0.141,0.211,0.141,0.35
		c0,0.141-0.07,0.211-0.141,0.351c-0.068,0.07-0.209,0.141-0.35,0.141c-0.14,0-0.21-0.07-0.28-0.141
		c-0.139-0.14-0.139-0.21-0.139-0.351c0-0.139,0-0.279,0.139-0.35C130.04,51.818,130.18,51.748,130.25,51.748z M132.42,51.748
		c0.14,0,0.21,0.07,0.351,0.14c0.069,0.07,0.14,0.211,0.14,0.35c0,0.141-0.07,0.211-0.14,0.351c-0.141,0.07-0.211,0.141-0.351,0.141
		s-0.279-0.07-0.35-0.141c-0.07-0.14-0.141-0.21-0.141-0.351c0-0.139,0.07-0.279,0.141-0.35
		C132.141,51.818,132.281,51.748,132.42,51.748z M52.523,46.706c-0.699,0-1.12,0.351-1.401,0.98c-0.28,0.561-0.349,1.26-0.349,1.892
		c0,1.189,0.209,2.939,1.75,2.939c1.542,0,1.681-1.75,1.681-2.939c0-0.632,0-1.262-0.28-1.821
		C53.645,47.126,53.224,46.776,52.523,46.706z M83.754,50.277h1.541c0.07,0,0.07,0,0.07,0c0-0.21,0-0.42,0-0.561
		c-0.141-0.419-0.351-0.56-0.771-0.56c-0.35,0-0.63,0.069-0.77,0.421C83.754,49.716,83.754,50.067,83.754,50.277z M91.387,50.277
		v0.98c0,0.28,0.069,0.561,0.28,0.771c0.21,0.35,0.56,0.489,0.98,0.489c0.489,0,0.77-0.28,0.84-0.77c0-0.141,0-0.42,0-0.63v-0.562
		c0-0.349,0-0.84-0.21-1.119c-0.141-0.211-0.42-0.28-0.7-0.28c-0.351,0-0.63,0.141-0.91,0.351
		C91.527,49.716,91.387,49.926,91.387,50.277z M97.9,51.466v-1.259c0-0.211,0-0.63-0.211-0.771c-0.21-0.211-0.49-0.28-0.771-0.28
		c-0.77,0-1.12,0.28-1.12,1.051v1.19c0,0.35,0.07,0.7,0.28,0.909c0.209,0.141,0.56,0.21,0.84,0.21s0.631-0.069,0.841-0.28
		C97.9,52.028,97.9,51.677,97.9,51.466z M113.234,51.118v-0.421c0-0.279,0-0.7-0.069-0.98c-0.069-0.419-0.42-0.56-0.841-0.56
		c-0.35,0-0.7,0.141-0.979,0.421c-0.141,0.209-0.28,0.489-0.28,0.77v1.119c0,0.352,0.21,0.562,0.419,0.771
		c0.281,0.211,0.562,0.28,0.841,0.28c0.351,0,0.701-0.069,0.771-0.419C113.234,51.818,113.234,51.398,113.234,51.118z"/>
	<path fill="#ED2224" d="M64.288,51.257c-0.841,0.771-5.883,0.07-7.143-0.14c-0.91-0.141-1.75-0.351-2.661-0.562
		c-0.209-0.068-0.56-0.139-0.77-0.209c-1.751,0-3.432-0.28-5.111-0.28c-0.701,0-0.701-0.91,0-0.91
		c1.679,0.069,3.43,0.351,5.111,0.351c0.28,0,0.701,0.14,0.98,0.209c0.84,0.21,1.681,0.42,2.591,0.561s5.742,0.771,6.373,0.352
		C64.147,50.136,64.778,50.767,64.288,51.257z"/>
</g>
<image overflow="visible" width="787" height="760" xlink:href="globe.png"  transform="matrix(0.0277 0 0 0.0277 9.5151 42.8979)">
</image>
</svg>
