<?xml version="1.0" encoding="utf-8"?>
<!-- Generator: Adobe Illustrator 16.0.0, SVG Export Plug-In . SVG Version: 6.00 Build 0)  -->
<!DOCTYPE svg PUBLIC "-//W3C//DTD SVG 1.1//EN" "http://www.w3.org/Graphics/SVG/1.1/DTD/svg11.dtd">
<svg version="1.1" id="Layer_1" xmlns="http://www.w3.org/2000/svg" xmlns:xlink="http://www.w3.org/1999/xlink" x="0px" y="0px"
	 width="150px" height="150px" viewBox="0 0 150 150" enable-background="new 0 0 150 150" xml:space="preserve">
<g>
	<path fill="#B5D034" d="M125.52,41.642c-5.415-0.417-11.544-1.647-18.215-3.657c-8.015-2.417-15.795-2.043-23.125,1.108
		c-1.033,0.444-1.51,1.643-1.066,2.676c0.445,1.033,1.642,1.511,2.677,1.066c6.424-2.76,13.267-3.08,20.34-0.95
		c6.95,2.095,13.37,3.379,19.077,3.818c0.055,0.005,0.108,0.006,0.159,0.006c1.055,0,1.946-0.813,2.03-1.881
		C127.481,42.706,126.643,41.727,125.52,41.642z"/>
	<path fill="#B5D034" d="M125.52,50.298c-5.415-0.415-11.544-1.646-18.215-3.655C99.29,44.227,91.51,44.6,84.18,47.75
		c-1.033,0.445-1.51,1.643-1.066,2.676c0.445,1.033,1.642,1.511,2.677,1.068c6.424-2.762,13.267-3.083,20.34-0.951
		c6.954,2.096,13.373,3.38,19.079,3.818c0.053,0.004,0.106,0.006,0.157,0.006c1.055,0,1.946-0.813,2.03-1.881
		C127.481,51.364,126.643,50.386,125.52,50.298z"/>
	<path fill="#B5D034" d="M125.52,93.589c-5.415-0.418-11.544-1.646-18.215-3.657c-8.015-2.418-15.794-2.043-23.125,1.106
		c-1.033,0.445-1.51,1.645-1.066,2.679c0.445,1.032,1.642,1.511,2.677,1.065c6.424-2.762,13.268-3.081,20.34-0.949
		c6.95,2.095,13.37,3.378,19.077,3.817c0.055,0.005,0.108,0.005,0.159,0.005c1.055,0,1.946-0.811,2.03-1.88
		C127.481,94.652,126.643,93.673,125.52,93.589z"/>
	<path fill="#B5D034" d="M125.52,102.246c-5.415-0.415-11.544-1.646-18.215-3.657c-8.015-2.414-15.795-2.043-23.125,1.107
		c-1.033,0.444-1.51,1.644-1.066,2.677c0.445,1.034,1.642,1.512,2.677,1.066c6.424-2.762,13.267-3.082,20.34-0.949
		c6.95,2.094,13.37,3.381,19.077,3.817c0.055,0.006,0.108,0.006,0.159,0.006c1.055,0,1.946-0.812,2.03-1.881
		C127.481,103.312,126.643,102.333,125.52,102.246z"/>
	<path fill="#B5D034" d="M125.52,58.958c-5.415-0.417-11.544-1.647-18.215-3.657c-8.015-2.416-15.794-2.043-23.125,1.108
		c-1.033,0.444-1.51,1.642-1.066,2.675c0.445,1.034,1.642,1.512,2.677,1.068c6.424-2.762,13.268-3.081,20.34-0.951
		c6.95,2.096,13.37,3.381,19.077,3.819c0.055,0.004,0.108,0.006,0.159,0.006c1.055,0,1.946-0.812,2.03-1.881
		C127.481,60.022,126.643,59.043,125.52,58.958z"/>
	<path fill="#B5D034" d="M125.52,76.271c-5.415-0.414-11.544-1.645-18.215-3.655C99.29,70.2,91.51,70.573,84.18,73.723
		c-1.033,0.445-1.51,1.643-1.066,2.677c0.445,1.033,1.642,1.513,2.677,1.067c6.424-2.762,13.267-3.082,20.34-0.951
		c6.954,2.096,13.373,3.38,19.079,3.819c0.053,0.003,0.106,0.007,0.157,0.007c1.055,0,1.946-0.814,2.03-1.884
		C127.481,77.337,126.643,76.357,125.52,76.271z"/>
	<path fill="#B5D034" d="M125.52,67.615c-5.415-0.416-11.544-1.647-18.215-3.657c-8.015-2.415-15.795-2.043-23.125,1.108
		c-1.033,0.443-1.51,1.643-1.066,2.676c0.445,1.032,1.642,1.511,2.677,1.067c6.424-2.762,13.268-3.082,20.34-0.951
		c6.95,2.095,13.37,3.379,19.077,3.817c0.055,0.005,0.108,0.007,0.159,0.007c1.055,0,1.946-0.813,2.03-1.881
		C127.481,68.68,126.643,67.7,125.52,67.615z"/>
	<path fill="#B5D034" d="M125.52,84.929c-5.415-0.415-11.544-1.645-18.215-3.655c-8.015-2.416-15.794-2.043-23.125,1.107
		c-1.033,0.444-1.51,1.642-1.066,2.678c0.445,1.031,1.642,1.512,2.677,1.066c6.424-2.763,13.268-3.082,20.34-0.95
		c6.95,2.096,13.37,3.379,19.079,3.818c0.053,0.005,0.106,0.005,0.157,0.005c1.055,0,1.946-0.812,2.03-1.88
		C127.481,85.995,126.643,85.016,125.52,84.929z"/>
	<path fill="#B5D034" d="M25.651,45.709c0.053,0,0.105-0.002,0.158-0.006c5.708-0.438,12.127-1.723,19.08-3.818
		c7.072-2.13,13.915-1.812,20.339,0.95c1.034,0.445,2.232-0.032,2.676-1.066c0.445-1.033-0.033-2.232-1.066-2.676
		c-7.33-3.151-15.11-3.524-23.124-1.108c-6.671,2.01-12.8,3.241-18.216,3.657c-1.122,0.085-1.96,1.064-1.875,2.187
		C23.704,44.897,24.597,45.709,25.651,45.709z"/>
	<path fill="#B5D034" d="M25.651,54.367c0.053,0,0.105-0.002,0.158-0.006c5.707-0.438,12.126-1.723,19.08-3.818
		c7.072-2.131,13.915-1.811,20.339,0.951c1.034,0.443,2.232-0.035,2.676-1.068c0.445-1.034-0.033-2.231-1.066-2.676
		c-7.33-3.151-15.11-3.523-23.124-1.107c-6.672,2.01-12.801,3.241-18.216,3.655c-1.123,0.085-1.961,1.065-1.875,2.188
		C23.704,53.554,24.597,54.367,25.651,54.367z"/>
	<path fill="#B5D034" d="M25.651,97.655c0.053,0,0.105,0,0.158-0.005c5.709-0.437,12.128-1.723,19.08-3.817
		c7.072-2.132,13.915-1.813,20.339,0.949c1.034,0.445,2.232-0.033,2.676-1.065c0.445-1.034-0.033-2.233-1.066-2.679
		c-7.33-3.149-15.11-3.521-23.124-1.106c-6.671,2.011-12.799,3.239-18.216,3.657c-1.122,0.084-1.96,1.063-1.875,2.187
		C23.704,96.845,24.597,97.655,25.651,97.655z"/>
	<path fill="#B5D034" d="M25.651,106.313c0.053,0,0.105,0,0.158-0.006c5.708-0.437,12.127-1.724,19.08-3.817
		c7.072-2.129,13.915-1.813,20.339,0.949c1.034,0.445,2.232-0.032,2.676-1.066c0.445-1.033-0.033-2.232-1.066-2.677
		c-7.33-3.15-15.11-3.521-23.124-1.107c-6.671,2.011-12.8,3.242-18.216,3.657c-1.122,0.087-1.96,1.065-1.875,2.187
		C23.704,105.502,24.597,106.313,25.651,106.313z"/>
	<path fill="#B5D034" d="M25.651,63.025c0.053,0,0.105-0.002,0.158-0.006c5.709-0.438,12.128-1.723,19.08-3.819
		c7.072-2.131,13.915-1.811,20.339,0.951c1.034,0.444,2.232-0.034,2.676-1.068c0.445-1.034-0.033-2.231-1.066-2.676
		c-7.33-3.15-15.11-3.523-23.124-1.107c-6.671,2.01-12.799,3.241-18.216,3.657c-1.122,0.085-1.96,1.064-1.875,2.187
		C23.704,62.213,24.597,63.025,25.651,63.025z"/>
	<path fill="#B5D034" d="M25.651,80.342c0.053,0,0.105-0.004,0.158-0.007c5.707-0.439,12.126-1.724,19.08-3.819
		c7.072-2.131,13.915-1.811,20.339,0.951c1.034,0.444,2.232-0.034,2.676-1.067c0.445-1.034-0.033-2.231-1.066-2.677
		c-7.33-3.149-15.109-3.522-23.124-1.106c-6.672,2.011-12.801,3.241-18.216,3.655c-1.123,0.086-1.961,1.065-1.875,2.187
		C23.704,79.527,24.597,80.342,25.651,80.342z"/>
	<path fill="#B5D034" d="M25.651,71.683c0.053,0,0.105-0.002,0.158-0.006c5.708-0.438,12.127-1.722,19.08-3.818
		c7.071-2.131,13.915-1.811,20.339,0.951c1.034,0.444,2.232-0.034,2.676-1.067c0.445-1.034-0.033-2.231-1.066-2.676
		c-7.33-3.151-15.11-3.523-23.124-1.107c-6.671,2.009-12.8,3.24-18.216,3.656c-1.122,0.085-1.96,1.065-1.875,2.187
		C23.704,70.87,24.597,71.683,25.651,71.683z"/>
	<path fill="#B5D034" d="M25.651,88.998c0.053,0,0.105-0.003,0.158-0.005c5.708-0.438,12.127-1.723,19.08-3.818
		c7.072-2.132,13.915-1.813,20.339,0.95c1.034,0.445,2.232-0.035,2.676-1.066c0.445-1.036-0.033-2.233-1.066-2.678
		c-7.33-3.15-15.11-3.523-23.124-1.107c-6.671,2.011-12.8,3.24-18.216,3.655c-1.123,0.087-1.961,1.066-1.875,2.189
		C23.704,88.187,24.597,88.998,25.651,88.998z"/>
	<path fill="#B5D034" d="M140.067,33.953h-3.189v-1.859c0-2.604-2.222-4.665-4.825-4.457c-3.005,0.24-9.588,0.255-19.898-2.36
		c-1.092-0.277-2.2,0.384-2.477,1.474c-0.276,1.091,0.385,2.199,1.475,2.475c10.336,2.621,17.249,2.792,21.226,2.472
		c0.233-0.016,0.427,0.164,0.427,0.397V114.3c-7.718,0.833-18.026-1.375-25.5-3.628c-16.694-5.031-27.486,3.612-29.759,4.844V34.088
		c2.2-2.065,11.073-9.377,24.276-7.252c1.111,0.181,2.156-0.576,2.335-1.687s-0.575-2.157-1.688-2.336
		c-13.864-2.233-23.432,4.539-26.965,7.624c-8.105-7.03-19.698-10.151-31.791-6.506c-12.979,3.911-21.078,3.999-24.75,3.706
		c-2.605-0.209-4.824,1.857-4.824,4.457v1.859h-3.19c-2.743,0-4.975,2.233-4.975,4.976v82.61c0,2.744,2.232,4.976,4.975,4.976
		h52.783c0.791,0,1.508,0.438,1.828,1.112c3.953,8.364,15.927,8.395,19.896,0c0.32-0.675,1.036-1.112,1.827-1.112h52.783
		c2.743,0,4.974-2.231,4.974-4.976V82.905c0-1.127-0.911-2.038-2.037-2.038c-1.124,0-2.036,0.911-2.036,2.038v38.633
		c0,0.497-0.404,0.901-0.9,0.901H87.285c-2.359,0-4.522,1.351-5.512,3.445c-2.49,5.269-10.03,5.291-12.529,0
		c-0.989-2.092-3.152-3.445-5.511-3.445H10.95c-0.496,0-0.9-0.404-0.9-0.901v-82.61c0-0.496,0.404-0.9,0.9-0.9h3.19v78.011
		c0,0.926,0.622,1.733,1.516,1.97c0.386,0.104,9.717,2.444,29.232-3.435c9.443-2.846,18.556-1.102,25.787,3.999
		c2.796,1.97,6.687,2.1,9.667-0.002c4.367-3.08,13.522-7.692,25.787-3.997c19.515,5.879,28.845,3.538,29.232,3.435
		c0.893-0.236,1.517-1.044,1.517-1.97V38.028h3.188c0.496,0,0.9,0.404,0.9,0.9v34.47c0,1.125,0.912,2.037,2.037,2.037
		c1.126,0,2.038-0.912,2.038-2.037v-34.47C145.043,36.186,142.811,33.953,140.067,33.953z M18.215,32.094
		c0-0.228,0.187-0.413,0.424-0.396c3.958,0.317,12.632,0.237,26.251-3.867c11.029-3.322,21.566-0.311,28.583,6.258v81.426
		c-1.169-0.632-12.624-10.008-29.759-4.844c-1.099,0.332-2.306,0.677-3.423,0.975c-0.014,0.003-0.027,0.006-0.041,0.012
		c-6.56,1.749-15.285,3.371-22.035,2.646C18.215,108.641,18.215,33.614,18.215,32.094z"/>
</g>
</svg>
