<?xml version="1.0" encoding="utf-8"?>
<!-- Generator: Adobe Illustrator 16.0.0, SVG Export Plug-In . SVG Version: 6.00 Build 0)  -->
<!DOCTYPE svg PUBLIC "-//W3C//DTD SVG 1.1//EN" "http://www.w3.org/Graphics/SVG/1.1/DTD/svg11.dtd">
<svg version="1.1" id="Layer_1" xmlns="http://www.w3.org/2000/svg" xmlns:xlink="http://www.w3.org/1999/xlink" x="0px" y="0px"
	 width="150px" height="150px" viewBox="0 0 150 150" enable-background="new 0 0 150 150" xml:space="preserve">
<g>
	<g>
		<path fill="#B5D034" d="M36.662,39.545c-12.219,0-22.159,9.941-22.159,22.159s9.94,22.159,22.159,22.159
			c7.952,0,14.918-4.226,18.829-10.533c-3.063-4.983-7.032-13.989-2.358-26.398C49.071,42.412,43.203,39.545,36.662,39.545z"/>
		<path fill="#B5D034" d="M51.846,80.774c-0.271,0.213-0.605,0.46-0.973,0.72c-2.171,5.763-7.718,9.866-14.237,9.866
			c-6.573,0-12.157-4.168-14.291-9.999c-0.69-0.495-1.219-0.914-1.527-1.169c-0.111-0.101-0.229-0.189-0.338-0.291l-0.189,0.165
			C6.497,91.995,6.687,112.871,6.7,113.755l0.013,0.737h35.096c0.536-8.089,2.928-22.483,12.593-33.13
			c-0.7-0.638-1.29-1.09-1.676-1.349c-0.191,0.174-0.389,0.345-0.587,0.517C52.041,80.61,51.943,80.692,51.846,80.774z"/>
	</g>
	<g>
		<path fill="#B5D034" d="M97.355,79.244c-0.223,0.199-0.448,0.396-0.676,0.59c-0.11,0.096-0.222,0.187-0.335,0.28
			c-2.165,1.723-7.149,4.966-13.722,6.008c-0.652,0.087-1.3,0.192-1.964,0.234c-0.562,0.034-1.125,0.056-1.696,0.056
			c-2.069,0-4.077-0.245-6.013-0.685c-6.122-1.558-10.797-5.169-12.125-6.281c-0.126-0.114-0.263-0.215-0.385-0.329l-0.218,0.188
			c-15.792,13.653-15.576,37.555-15.557,38.566l0.014,0.848h67.587l-0.035-0.897C111.108,90.21,100.067,81.078,97.355,79.244z
			 M87.96,97.945l-9.495-4.84l-9.496,4.84V86.189l9.496,5.076l9.495-5.076V97.945z"/>
	</g>
	<g>
		<g>
			<path fill="#B5D034" d="M53.708,57.974c0.006,13.992,11.394,25.379,25.387,25.379h0.008c6.771-0.004,13.141-2.647,17.94-7.449
				c4.799-4.803,7.442-11.175,7.44-17.945c-0.003-13.994-11.393-25.381-25.389-25.381C65.092,32.582,53.706,43.973,53.708,57.974z"
				/>
		</g>
	</g>
	<path fill="#B5D034" d="M114.806,113.218l28.486,0.007l0.011-0.666c0.013-0.792-0.261-18.518-12.653-29.24l-0.169-0.147
		c-0.4,0.371-0.814,0.728-1.241,1.066l-8.814,17.157l-1.563-10.064l2.51-4.06c-1.601,0.386-3.269,0.594-4.984,0.594
		c-0.447,0-0.889-0.02-1.331-0.05c-0.805-0.048-1.6-0.146-2.381-0.282c-0.302-0.054-0.605-0.114-0.908-0.18l2.473,3.974
		l-1.646,9.585C113.92,105.594,114.524,110.115,114.806,113.218z"/>
	<path fill="#B5D034" d="M117.24,85.145c10.976,0,19.912-8.929,19.914-19.907s-8.924-19.913-19.903-19.916
		c-4.47,0-8.601,1.48-11.928,3.975c1.037,2.848,1.604,5.924,1.604,9.125c-0.003,6.662-2.461,12.756-6.506,17.444
		C103.954,81.434,110.169,85.141,117.24,85.145z"/>
</g>
</svg>
