<?xml version="1.0" encoding="utf-8"?>
<!-- Generator: Adobe Illustrator 16.0.0, SVG Export Plug-In . SVG Version: 6.00 Build 0)  -->
<!DOCTYPE svg PUBLIC "-//W3C//DTD SVG 1.1//EN" "http://www.w3.org/Graphics/SVG/1.1/DTD/svg11.dtd">
<svg version="1.1" id="Layer_1" xmlns="http://www.w3.org/2000/svg" xmlns:xlink="http://www.w3.org/1999/xlink" x="0px" y="0px"
	 width="150px" height="150px" viewBox="0 0 150 150" enable-background="new 0 0 150 150" xml:space="preserve">
<g>
	<path fill="#F4E2D6" d="M85.638,94.414c-2.587-3.758-4.112-7.417-4.013-12.06c0.021-1.003-0.836-1.442-1.604-1.319
		c-0.091-0.104-0.195-0.205-0.328-0.291c-3.903-2.484-8.951-1.857-13.117-0.368c-0.339,0.122-0.556,0.402-0.652,0.717
		c-0.495,0.077-0.915,0.503-0.756,1.177c1.274,5.453-0.668,9.074-3.194,13.672c-1.352,2.459-1.808,5.125-1.005,7.846
		c1.841,6.253,8.307,9.124,14.435,8.781c5.927-0.334,11.849-3.293,12.723-9.704C88.565,99.643,87.432,97.015,85.638,94.414z"/>
	<path fill="#F3D2BC" d="M96.612,56.721c0.331-2.925,0.414-5.831,0.074-8.5c-1.789-14.014-20.481-12.498-30.731-12.427
		c-6.158,0.041-9.867,3.067-11.521,8.958c-1.13,4.03-1.576,8.278-1.545,12.522c-0.979-0.172-2.012,0.153-2.725,0.916
		c-1.086,1.163-1.129,2.967-0.952,4.451c0.177,1.492,0.741,3.074,2.104,3.877c0.742,0.438,1.607,0.576,2.387,0.374
		c0.036,0.226,0.068,0.452,0.105,0.677c0.023,0.142,0.079,0.26,0.152,0.354c0.772,4.001,2.262,7.798,4.731,11.154
		c6.447,8.773,18.362,11.229,26.916,4.01c4.542-3.831,7.22-9.275,8.73-14.934c0.123-0.461,0.245-0.931,0.367-1.407
		c0.133,0.048,0.287,0.073,0.461,0.063C99.58,66.563,100.396,57.811,96.612,56.721z"/>
	<path fill="#7D4F23" d="M98.544,57.6c0.013-0.035,0.024-0.073,0.029-0.117c0.406-5.507,0.679-11.328-1.587-16.506
		c-2.013-4.601-5.841-7.236-10.405-9.006c-5.608-2.177-12.163-3.546-18.2-2.905c-4.018,0.427-8.853,2.294-9.738,6.653
		c-9.947-0.638-8.511,13.456-8.306,20.6c-0.062,0.308-0.119,0.615-0.164,0.922c-0.025,0.174,0.048,0.371,0.186,0.469
		c0,0.109,0,0.221-0.001,0.324c0,0.002,0.001,0.004,0.001,0.004c-0.018,0.025-0.041,0.041-0.059,0.068
		c-0.094,0.14,0.11,0.28,0.225,0.173c1.049-0.982,2.505-0.358,3.073,0.802c0.557,1.141,0.214,2.309,0.302,3.5
		c0.009,0.119,0.104,0.174,0.194,0.169c0.038,0.085,0.131,0.153,0.243,0.132c0.314-0.056,0.629-0.107,0.947-0.131
		c0.268-0.02,0.536,0.017,0.778-0.111c0.082-0.043,0.111-0.121,0.106-0.197c0.094,0.041,0.216,0.006,0.223-0.138
		c0.173-3.062,2.628-4.497,4.366-6.646c0.966-1.193,1.774-2.512,2.396-3.918c0.584-1.32,0.995-2.698,1.246-4.099
		c1.369,2.769,5.326,4.463,8.052,5.529c3.047,1.19,6.067,1.735,9.324,1.821c2.858,0.08,6.12,0.149,8.587,1.491
		c0.015,0.011,0.023,0.024,0.04,0.034c0.093,0.049,0.188,0.1,0.28,0.15c1.075,0.652,1.983,1.574,2.607,2.888
		c0.046,0.354,0.081,0.71,0.115,1.065c0.018,0.196,0.009,0.395,0.038,0.582c-0.09,0.102-0.075,0.297,0.088,0.332
		c0.016,0.002,0.033,0.01,0.05,0.014c0.018,0.023,0.026,0.051,0.05,0.076c0.07,0.073,0.192,0.071,0.27,0.007
		c0.396,0.109,0.852,0.229,1.174,0.073c0.03-0.014,0.054-0.037,0.071-0.066c0.127,0.099,0.352,0.036,0.354-0.16
		c0.003-0.977-0.026-2,0.337-2.927c0.176-0.457,0.482-0.944,0.97-1.075c0.598-0.163,0.975,0.252,1.191,0.741
		c0.043,0.099,0.194,0.064,0.22-0.028c0.013-0.047,0.018-0.092,0.023-0.135c0.05,0.034,0.101,0.07,0.149,0.104
		c0.291,0.202,0.57-0.277,0.277-0.476L98.544,57.6z"/>
</g>
<path fill="none" stroke="#3D3D3C" stroke-width="0" stroke-linecap="round" stroke-linejoin="round" d="M71.456,96.413
	c0.009,0,0.009-0.015,0-0.015"/>
<path fill="#F5F6F6" d="M87.26,96.813c0.014-0.061,0.017-0.121,0.003-0.184c-0.133-0.626-0.637-1.178-0.999-1.694
	c-0.387-0.55-0.821-1.013-1.32-1.463c-0.08-0.071-0.194-0.087-0.293-0.063c-0.118-0.343-0.546-0.568-0.856-0.218
	c-1.303,1.458-2.916,2.321-4.705,2.934c-0.122-0.2-0.341-0.318-0.632-0.207c-1.445,0.557-2.913,0.886-4.469,0.887
	c-1.238,0.005-2.446-0.412-3.666-0.236c-0.014,0.001-0.025,0.009-0.038,0.015c-1.006-0.178-2.008-0.397-2.953-0.774
	c-1.372-0.549-2.378-1.55-3.652-2.208c0.091-0.445-0.552-0.726-0.87-0.31c-5.731,7.575-7.296,17.992-4.579,27.079
	c2.555,8.543,9.616,15.991,19.165,14.937c8.984-0.99,13.673-8.644,14.849-16.929C93.331,110.719,91.705,102.994,87.26,96.813z"/>
<path fill="#ECECEC" d="M69.917,96.077c-1.501-0.201-5.58-1.276-6.426-3.08c-0.011-0.084-0.04-0.161-0.079-0.234
	c-0.016-0.052-0.041-0.103-0.05-0.155c-0.045-0.227-0.277-0.275-0.449-0.193c-0.146-0.009-0.296,0.048-0.425,0.203
	c-1.871,2.304-3.278,3.574-1.539,6.437c1.603,2.638,3.825,4.8,6.343,6.56c0.37,0.257,0.875-0.088,0.874-0.502
	c-0.006-2.963,0.72-5.69,2.197-8.256C70.577,96.48,70.291,96.126,69.917,96.077z"/>
<path fill="#ECECEC" d="M85.226,92.694c-0.045-0.039-0.095-0.054-0.142-0.078c-0.123-0.359-0.601-0.612-0.963-0.267
	c-1.613,1.529-3.493,2.555-5.609,3.216c-0.314,0.098-0.372,0.392-0.268,0.611c-0.023,0.086-0.019,0.18,0.039,0.28
	c1.311,2.243,2.097,4.42,1.582,7.032c-0.075,0.388,0.267,0.885,0.711,0.71C84.544,102.654,89.609,96.39,85.226,92.694z"/>
<path fill="#585857" d="M82.104,127.177c-1.786-8.382-3.123-17.035-5.648-25.231c0.145-0.016,0.282-0.1,0.344-0.273
	c0.549-1.525,1.237-3.472,0.971-5.144c0.249-0.235,0.043-0.765-0.377-0.704c-0.061-0.015-0.125-0.016-0.197,0
	c-0.315,0.075-0.633,0.126-0.951,0.172c-0.605,0.066-1.208,0.095-1.81,0.095c-0.629-0.018-1.257-0.075-1.879-0.198
	c-0.167-0.035-0.297,0.03-0.379,0.13c-0.236-0.01-0.472-0.021-0.709-0.028c-0.129-0.007-0.184,0.08-0.184,0.175
	c-0.08,0.074-0.13,0.185-0.105,0.312c0.182,0.913,0.516,1.771,0.829,2.645c0.277,0.776,0.48,1.632,0.923,2.331
	c0.025,0.039,0.058,0.067,0.093,0.093c0.003,0.067,0.034,0.134,0.112,0.18c0.02,0.014,0.036,0.025,0.056,0.037
	c-0.016,0.023-0.028,0.048-0.036,0.08c-1.776,8.125-2.185,16.734-3.125,24.996c-0.024,0.213,0.091,0.345,0.243,0.392
	c0.818,5.817,10.227,6.45,11.582,0.584c0.006-0.021,0-0.038,0.003-0.061C82.037,127.644,82.161,127.44,82.104,127.177z"/>
<path fill="#3D3D3C" d="M95.974,146.865c5.554-1.117,12.784-2.083,16.727-6.621c0.338,0.014,0.715-0.268,0.633-0.708
	c-0.017-0.088-0.034-0.175-0.051-0.263c-0.003-0.038-0.009-0.075-0.021-0.112c-1.786-9.463-3.828-19.035-7.676-27.902
	c-1.487-3.428-3.101-7.098-6.175-9.403c-3.391-2.546-8.033-4.008-11.999-5.377c-0.125-0.043-0.236,0.007-0.309,0.095
	c-0.104-0.039-0.24-0.005-0.284,0.122c-1.219,3.54-3.866,6.359-6.082,9.32c-2.146,2.868-4.314,5.722-6.43,8.614
	c-4.882-5.464-10.553-10.816-14.099-17.178c-0.015-0.049-0.038-0.093-0.073-0.129c-0.025-0.048-0.054-0.094-0.081-0.143
	c-0.063-0.112-0.189-0.06-0.222,0.035c-0.036,0.008-0.072,0.014-0.111,0.031c-7.114,3.198-14.387,7.208-17.062,14.925
	c-1.449,4.176-1.974,8.68-2.733,13.017c-0.847,4.847-1.693,9.695-2.542,14.542c-0.409-0.266-0.822-0.524-1.222-0.812
	c-0.311-0.221-0.683,0.271-0.405,0.528c0.516,0.481,1.054,0.936,1.604,1.373c0.064,0.094,0.156,0.16,0.257,0.207
	c9.743,7.532,24.385,8.263,36.117,8.164"/>
<path fill="#1D1D1B" d="M75.721,150c0.073-5.119-0.006-10.272-0.174-15.429c0.006-0.007,0.015-0.013,0.02-0.02
	c3.287-4.972,6.48-10.549,8.664-16.107c0.018-0.044,0.021-0.087,0.018-0.129c0.046-0.044,0.078-0.104,0.08-0.176
	c0.096-2.886-0.184-5.87-0.463-8.747c1.945-0.24,3.847-0.926,5.654-1.645c0.156-0.063,0.208-0.214,0.183-0.345
	c0.011-0.018,0.021-0.034,0.025-0.059c0.365-3.463-1.183-7.469-2.054-10.781c-0.106-0.403-0.746-0.228-0.627,0.172
	c1.003,3.366,1.113,7.214,2.381,10.46c-0.021,0.003-0.038,0.001-0.058,0.009c-1.896,0.653-3.855,1.075-5.758,1.691
	c-0.21-0.078-0.478,0.018-0.463,0.308c0.139,2.942,0.241,5.971,0.645,8.89c-0.05,0.022-0.098,0.055-0.13,0.112
	c-2.861,4.962-5.475,10.182-8.152,15.266c-0.22-6.301-0.568-12.6-0.956-18.84c-0.02-0.309-0.491-0.314-0.487,0
	c0.071,6.137,0.148,12.312,0.314,18.484c-2.978-5.548-6.414-11.283-10.498-16.011c0.593-2.837,0.745-6.213,0.24-9.049
	c-0.02-0.109-0.099-0.145-0.179-0.14c-0.048-0.091-0.132-0.168-0.261-0.185c-1.209-0.149-2.414-0.263-3.607-0.526
	c-0.831-0.185-1.644-0.446-2.487-0.562c0.683-1.763,1.147-3.633,1.675-5.444c0.305-1.051,1.182-2.689,0.804-3.779
	c-0.083-0.235-0.411-0.189-0.431,0.06c-0.114,1.461-0.937,3.124-1.359,4.545c-0.47,1.568-1.011,3.142-1.328,4.751
	c-0.034,0.182,0.07,0.302,0.199,0.331c1.836,0.983,4.473,1.201,6.535,1.26c0.004,0,0.007-0.002,0.011-0.002
	c-0.351,2.876-0.458,5.967-0.467,8.853c0,0.169,0.13,0.277,0.271,0.302c3.556,5.806,7.47,11.345,10.913,17.236
	c0.005,0.01,0.012,0.014,0.018,0.02c0.152,5.091,0.367,10.175,0.704,15.226"/>
<circle fill="none" cx="74.752" cy="70.308" r="62.83"/>
</svg>
