<?xml version="1.0" encoding="utf-8"?>
<!-- Generator: Adobe Illustrator 16.0.0, SVG Export Plug-In . SVG Version: 6.00 Build 0)  -->
<!DOCTYPE svg PUBLIC "-//W3C//DTD SVG 1.1//EN" "http://www.w3.org/Graphics/SVG/1.1/DTD/svg11.dtd">
<svg version="1.1" id="Layer_1" xmlns="http://www.w3.org/2000/svg" xmlns:xlink="http://www.w3.org/1999/xlink" x="0px" y="0px"
	 width="824px" height="800px" viewBox="544.5 0 824 800" enable-background="new 544.5 0 824 800" xml:space="preserve">
<path fill="#FFFFFF" d="M960.002,800C1180.313,800,1360,620.313,1360,400.002C1360,179.689,1180.313,0,960.002,0
	C739.689,0,560,179.689,560,400.002C560,620.313,739.689,800,960.002,800z"/>
<path fill="#FED198" d="M917.584,299.913c28.277,0,56.549,0,84.822,0l6.872,71.488l20.759,15.238l123.508,39.15
	c0,0,16.197,8.911,20.958,33.826c4.75,24.918,7.064,80.008,10.739,113.624c-84.5,96.845-360.209,96.995-450.482,0.003
	c3.675-33.615,5.98-88.709,10.737-113.628c4.755-24.916,20.958-33.827,20.958-33.827l124.353-39.688l19.914-14.692L917.584,299.913
	L917.584,299.913z"/>
<path fill="#F0B97D" d="M1006.139,338.729l1.091,11.341c-6.315,7.354-12.82,14.38-18.967,21.146
	c-6.968,7.669-50.083,7.807-57.122-0.311c-5.747-6.633-12.063-13.818-18.311-21.464l1.081-11.265
	c5.894,6.84,11.817,13.281,17.229,19.25c7.039,7.755,50.154,7.624,57.122,0.296C994.058,351.627,1000.167,345.315,1006.139,338.729
	L1006.139,338.729z"/>
<path fill="#FF5B61" d="M890.808,386.102l-124.356,39.688c0,0-16.198,8.911-20.954,33.826
	c-4.755,24.918-7.064,80.012-10.737,113.629c90.273,96.99,365.984,96.842,450.482-0.004c-3.678-33.613-5.989-88.706-10.739-113.623
	c-4.763-24.916-20.956-33.826-20.956-33.826l-123.51-39.152C1009.576,446.654,910.313,444.151,890.808,386.102L890.808,386.102z"/>
<path fill="#FED198" d="M854.089,191.336c-26.602-4.717-3.923,74.728,15.508,62.884l10.427,30.621
	c9.394,27.584,33.084,52.7,51.117,72.583c7.039,7.758,50.154,7.626,57.122,0.297c19.967-20.997,43.688-44.586,52.597-73.035
	l9.542-30.466c19.458,11.832,42.089-67.597,15.507-62.884c1.844-61.841-41.887-121.837-105.906-122.112
	C895.979,69.499,852.247,129.495,854.089,191.336L854.089,191.336z"/>
<path fill="#666666" d="M1036.359,81.4c7.514-0.874,34.661,23.922,37.916,52.638c3.259,28.715-1.689,58.313-1.689,58.313
	c-19.889-2.484-16.072,33.197-16.072,33.197l-5.759,0.25l-4.104-20.689c-23.792-14.91,9.386-73.819-14.415-78.988
	c-40.731,33.55-101.153,45.966-153.877,37.349c-14.797,1.975,6.732,20.678,0.486,42.192c-4.602,8.037-1.856,20.703-1.856,20.703
	l-6.883,0.859c0,0-4.261-35.989-17.534-35.838c-6.138-16.576-4.875-27.086-3.749-41.898
	C855.064,67.384,959.375,15.849,1036.359,81.4L1036.359,81.4z"/>
<g>
	<path fill="#FFFFFF" d="M735.506,440.589C873.945,422.492,929.039,457.229,960,484.576c-46.013-26.488-134.32-24.738-220.604-9.321
		L735.506,440.589L735.506,440.589z"/>
	<path fill="#FFFFFF" d="M1184.489,440.589c-138.432-18.097-193.526,16.64-224.487,43.987
		c54.892-31.605,158.056-20.266,220.521-8.829L1184.489,440.589L1184.489,440.589z"/>
</g>
<path fill="#15BDB1" d="M701.373,480.711c97.621-22.245,207.023-29.271,260.111,1.295c53.094-30.563,159.514-23.54,257.141-1.295
	c-5.589,192.058-0.927,31.76-8.375,288.099c-5.722-1.08-160.013-24.026-234.592-1.648c-12.418-0.008-15.299-0.008-27.766,0
	c-81.882-23.815-232.775,0.636-238.152,1.648C702.052,504.138,707.146,679.689,701.373,480.711L701.373,480.711z"/>
<g>
	<path fill="#DFE1E3" d="M713.698,463.536l1.486,15.259c94.303-20.017,196.753-25.211,247.579,4.054v-0.002
		C962.586,482.713,887.287,426.092,713.698,463.536z"/>
	<path fill="#DFE1E3" d="M1206.299,464.381l-1.484,15.262c-94.309-20.018-196.752-25.211-247.582,4.053l-0.001-0.002
		C957.411,483.561,1032.713,426.942,1206.299,464.381L1206.299,464.381z"/>
</g>
<path fill="#FED198" d="M754.455,559l-27.191,1.453l-27.065,1.916c-11.201,0.8-9.331,20.862,1.833,19.543l29.498-3.495l22.406-1.884
	C765.136,575.583,761.981,558.594,754.455,559z M750.721,621.416L750.721,621.416l-42.172,4.931
	c-9.047,1.052-6.869,21.206,1.829,19.538l42.304-8.14C761.516,636.045,759.646,620.373,750.721,621.416L750.721,621.416z
	 M756.08,599.536L756.08,599.536c11.191-1.049,13.477,16.239,2.321,17.664l-53.394,6.821c-11.148,1.426-13.013-18.49-1.826-19.534
	L756.08,599.536L756.08,599.536z M763.534,577.698L763.534,577.698c13.106-1.227,14.933,18.312,1.831,19.539l-62.05,5.808
	c-13.099,1.227-14.925-18.311-1.833-19.535L763.534,577.698L763.534,577.698z"/>
<g>
	<path fill="#FFFFFF" d="M750.936,563.439l0.957,10.211l6.811-0.638c1.144-3.827,0.661-7.438-1.021-10.922L750.936,563.439z"/>
	<path fill="#FFFFFF" d="M762.635,582.425l1.084,11.596l6.359-0.597c2.248-4.382,2.15-8.544-1.161-12.402L762.635,582.425z"/>
	<path fill="#FFFFFF" d="M754.143,604.1l0.956,10.205l7.797-0.729c0.806-3.748,0.498-7.391-1.023-10.92L754.143,604.1z"/>
	<path fill="#FFFFFF" d="M747.753,626.659l1.241,8.08l7.818-1.339c0.709-3.075,0.299-5.963-1.328-8.645L747.753,626.659z"/>
</g>
<path fill="#FED198" d="M1165.541,559l27.188,1.453l27.065,1.916c11.205,0.8,9.335,20.862-1.829,19.543l-29.502-3.495l-22.401-1.884
	C1154.857,575.583,1158.018,558.594,1165.541,559L1165.541,559z M1169.275,621.416L1169.275,621.416l42.175,4.931
	c9.047,1.052,6.864,21.206-1.831,19.538l-42.301-8.14C1158.479,636.045,1160.349,620.373,1169.275,621.416L1169.275,621.416z
	 M1163.914,599.536L1163.914,599.536c-11.192-1.049-13.475,16.239-2.318,17.664l53.391,6.821
	c11.148,1.426,13.016-18.49,1.829-19.534L1163.914,599.536L1163.914,599.536z M1156.463,577.698L1156.463,577.698
	c-13.106-1.227-14.935,18.312-1.83,19.539l62.05,5.808c13.096,1.227,14.921-18.311,1.831-19.535L1156.463,577.698z"/>
<g>
	<path fill="#FFFFFF" d="M1169.061,563.439l-0.957,10.211l-6.809-0.638c-1.146-3.827-0.664-7.438,1.022-10.922L1169.061,563.439z"/>
	<path fill="#FFFFFF" d="M1157.364,582.425l-1.086,11.596l-6.359-0.597c-2.252-4.382-2.15-8.544,1.162-12.402L1157.364,582.425
		L1157.364,582.425z"/>
	<path fill="#FFFFFF" d="M1165.852,604.1l-0.956,10.205l-7.792-0.729c-0.809-3.748-0.499-7.391,1.02-10.92L1165.852,604.1z"/>
	<path fill="#FFFFFF" d="M1172.245,626.659l-1.243,8.08l-7.817-1.339c-0.71-3.075-0.299-5.963,1.328-8.645L1172.245,626.659
		L1172.245,626.659z"/>
</g>
<path fill="#20D0C2" d="M948.203,767.156h27.458V475.611h-27.458V767.156z"/>
</svg>
